<?xml version="1.0" encoding="UTF-8"?>
<svg width="242px" height="68px" viewBox="0 0 242 68" version="1.1" xmlns="http://www.w3.org/2000/svg" xmlns:xlink="http://www.w3.org/1999/xlink">
    <!-- Generator: Sketch 53.2 (72643) - https://sketchapp.com -->
    <title>Logo 2</title>
    <desc>Created with Sketch.</desc>
    <g id="Page-1" stroke="none" stroke-width="1" fill="none" fill-rule="evenodd">
        <g id="Shop" transform="translate(-53.000000, -41.000000)">
            <g id="Logo-2" transform="translate(53.000000, 41.000000)">
                <ellipse id="Oval" fill="#B3ECFF" cx="28.9380022" cy="33.8520026" rx="28.9380022" ry="33.8520026"></ellipse>
                <g transform="translate(28.938002, 33.306003) scale(1, -1) rotate(180.000000) translate(-28.938002, -33.306003) translate(6.552001, 10.920001)" fill-rule="nonzero">
                    <path d="M34.6872932,27.953617 C33.7480748,30.0636376 33.3959749,32.3814171 33.6670787,34.6694175 C33.8322951,36.1585831 34.1319584,37.6303167 34.5625188,39.0671837 C34.7936423,39.8113606 35.0857405,40.5358656 35.4359398,41.2335709 C35.8703019,41.8900302 36.2625165,42.5725705 36.6102874,43.2771963 L18.187709,43.3277453 L18.187709,43.320524 C18.1289916,43.1038853 17.020701,38.8577662 14.5692503,37.7673513 C14.1141906,37.9262197 13.6297722,38.0850881 13.1380141,38.2511778 C11.5077996,38.8075438 9.84923253,39.279975 8.16905572,39.6665508 C7.70620282,39.7753659 7.21866046,39.7083141 6.80387659,39.4787973 C6.33176407,39.1930192 5.98002501,38.7495422 5.81302078,38.2295139 C5.62076707,37.7151335 5.55047572,37.1643424 5.60750994,36.6191661 C5.77659232,36.0624807 5.83392922,35.4787379 5.77632242,34.9004988 C5.58549093,34.1711485 4.88088235,33.9906162 4.31572755,33.6006665 C3.86800751,33.2829297 4.68271118,32.2647277 4.68271118,32.2647277 C4.68271118,32.2647277 3.8166298,31.6364754 3.50836355,31.3620663 C3.18541795,31.1020998 3.64047766,30.6543798 4.04415966,29.8094888 C4.21072677,29.4426325 4.25938366,29.0344598 4.18361344,28.6396396 C4.02948031,27.8669615 2.83311366,27.5708886 2.25327952,27.1448324 C1.97437196,26.9426363 1.52665192,26.6393421 1.47527421,26.2710562 C1.39453781,25.7583446 2.01107032,25.0362155 2.3119969,24.675151 C3.59243698,23.051647 4.69002677,21.2962258 5.58549093,19.4397151 C5.70300372,19.2437456 5.77330682,19.0238865 5.79100176,18.7970202 C5.77632242,17.7643756 4.25701017,17.3383194 4.11755639,16.33456 C4.09570291,16.0399717 4.14867081,15.7446614 4.27168951,15.4752264 C4.69494783,14.5900695 5.0578408,13.6781704 5.35796107,12.7455784 C5.53861091,11.8900884 5.77145525,11.0460771 6.05522998,10.2181266 C6.67073355,8.55698966 7.61919504,7.0344594 8.84430561,5.74092625 C10.6425254,3.87061191 13.2994869,2.94628668 15.809655,2.4552389 C18.0419226,1.97505479 20.305635,1.6492995 22.5841729,1.48036463 C22.6575696,1.47314334 22.7309664,1.47314334 22.8043631,1.46592205 C27.5017536,1.23484074 31.215628,2.80186086 34.8561057,5.60372173 C36.8398204,7.05976066 38.2898275,9.10973485 38.9883414,11.4457461 C39.5206062,13.3747976 39.770227,15.3687336 39.7296483,17.3672046 C39.7155811,19.3408643 39.129994,21.2696882 38.0415236,22.9275986 C36.9479124,24.6246019 35.5093365,26.0977453 34.6872932,27.953617 Z" id="Shape" fill="#1992D4" opacity="0.433314732"></path>
                    <path d="M32.4853914,27.953617 C31.5461729,30.0636376 31.1940731,32.3814171 31.4651769,34.6694175 C31.6303933,36.1585831 31.9300566,37.6303167 32.3606169,39.0671837 C32.5917405,39.8113606 32.8838387,40.5358656 33.234038,41.2335709 C33.6684001,41.8900302 34.0606147,42.5725705 34.4083856,43.2771963 L20.294195,43.3133027 L18.187709,43.320524 C18.1363312,43.1255492 17.2482308,39.7315424 15.3178969,38.2222926 C15.0881007,38.0412282 14.8366912,37.8884503 14.5692503,37.7673513 C14.5472313,37.7745726 14.5325519,37.7817939 14.5105329,37.7890152 C14.0701526,37.9406623 13.6077532,38.0923094 13.1380141,38.2511778 C13.1306745,38.2439565 13.1159951,38.2367352 13.1086554,38.2295139 C12.8852863,38.0413763 12.6356414,37.885737 12.3673485,37.7673513 C11.1269438,38.1934075 9.69570764,38.6627914 8.3892459,39.0455198 C7.83143077,39.2116095 7.29563467,39.3560353 6.80387659,39.4787973 C6.33176407,39.1930192 5.98002501,38.7495422 5.81302078,38.2295139 C5.62076707,37.7151335 5.55047572,37.1643424 5.60750994,36.6191661 C5.77659232,36.0624807 5.83392922,35.4787379 5.77632242,34.9004988 C5.58549093,34.1711485 4.88088235,33.9906162 4.31572755,33.6006665 C3.86800751,33.2829297 4.68271118,32.2647277 4.68271118,32.2647277 C4.68271118,32.2647277 3.8166298,31.6364754 3.50836355,31.3620663 C3.18541795,31.1020998 3.64047766,30.6543798 4.04415966,29.8094888 C4.21072677,29.4426325 4.25938366,29.0344598 4.18361344,28.6396396 C4.02948031,27.8669615 2.83311366,27.5708886 2.25327952,27.1448324 C1.97437196,26.9426363 1.52665192,26.6393421 1.47527421,26.2710562 C1.39453781,25.7583446 2.01107032,25.0362155 2.3119969,24.675151 C3.59243698,23.051647 4.69002677,21.2962258 5.58549093,19.4397151 C5.70300372,19.2437456 5.77330682,19.0238865 5.79100176,18.7970202 C5.77632242,17.7643756 4.25701017,17.3383194 4.11755639,16.33456 C4.09570291,16.0399717 4.14867081,15.7446614 4.27168951,15.4752264 C4.69494783,14.5900695 5.0578408,13.6781704 5.35796107,12.7455784 C5.53861091,11.8900884 5.77145525,11.0460771 6.05522998,10.2181266 C6.67073355,8.55698966 7.61919504,7.0344594 8.84430561,5.74092625 C10.6425254,3.87061191 13.2994869,2.94628668 15.809655,2.4552389 C18.0419226,1.97505479 20.305635,1.6492995 22.5841729,1.48036463 C22.9144582,1.5020285 23.2374038,1.53091367 23.5530097,1.57424141 C26.9106339,2.05160357 30.0642876,3.4478583 32.6542038,5.60372173 C34.6379185,7.05976066 36.0879256,9.10973485 36.7864396,11.4457461 C37.3187044,13.3747976 37.5683252,15.3687336 37.5277465,17.3672046 C37.5136793,19.3408643 36.9280922,21.2696882 35.8396218,22.9275986 C34.7460106,24.6246019 33.3074347,26.0977453 32.4853914,27.953617 Z" id="Shape" fill="#FFFFFF"></path>
                    <path d="M32.4853914,27.953617 C31.5461729,30.0636376 31.1940731,32.3814171 31.4651769,34.6694175 C31.6303933,36.1585831 31.9300566,37.6303167 32.3606169,39.0671837 C32.5917405,39.8113606 32.8838387,40.5358656 33.234038,41.2335709 C33.6684001,41.8900302 34.0606147,42.5725705 34.4083856,43.2771963 L20.294195,43.3133027 C20.2207983,43.0388937 19.105168,38.850545 16.6757364,37.7673513 C16.2426957,37.9189984 15.787636,38.0706455 15.3178969,38.2222926 C15.2947998,38.2349948 15.2701295,38.2447038 15.2445002,38.2511778 C15.0237204,38.0631807 14.7765159,37.9075216 14.5105329,37.7890152 C14.4958536,37.7817939 14.4885139,37.7745726 14.4738346,37.7673513 C14.0407939,37.9189984 13.5783945,38.0706455 13.1086554,38.2295139 C11.6774193,38.6988978 10.1434277,39.175503 8.91036266,39.4787973 C8.71088078,39.3673735 8.53417662,39.2204546 8.3892459,39.0455198 C8.18029826,38.8061072 8.02074787,38.5289446 7.91950685,38.2295139 C7.72725315,37.7151335 7.65696176,37.1643424 7.71399601,36.6191661 C7.88307836,36.0624807 7.9404153,35.4787379 7.88280848,34.9004988 C7.69197699,34.1711485 6.98736841,33.9906162 6.42221361,33.6006665 C5.97449358,33.2829297 6.78919725,32.2647277 6.78919725,32.2647277 C6.78919725,32.2647277 5.92311587,31.6364754 5.61484962,31.3620663 C5.29190402,31.1020998 5.74696373,30.6543798 6.15064572,29.8094888 C6.31721284,29.4426325 6.36586972,29.0344598 6.29009951,28.6396396 C6.13596638,27.8669615 4.93959973,27.5708886 4.35976558,27.1448324 C4.08085802,26.9426363 3.63313799,26.6393421 3.58176028,26.2710562 C3.50102388,25.7583446 4.11755639,25.0362155 4.41848297,24.675151 C5.69892305,23.051647 6.79651283,21.2962258 7.69197699,19.4397151 C7.80948978,19.2437456 7.8797929,19.0238865 7.89748783,18.7970202 C7.88280848,17.7643756 6.36349623,17.3383194 6.22404245,16.33456 C6.20218898,16.0399717 6.25515688,15.7446614 6.37817558,15.4752264 C6.80143389,14.5900695 7.16432686,13.6781704 7.46444714,12.7455784 C7.64509696,11.8900884 7.87794132,11.0460771 8.16171604,10.2181266 C8.7772196,8.55698966 9.7256811,7.0344594 10.9507917,5.74092625 C12.7490115,3.87061191 15.405973,2.94628668 17.9161411,2.4552389 C19.7772049,2.05983041 21.6590193,1.76571787 23.5530097,1.57424141 C26.9106339,2.05160357 30.0642876,3.4478583 32.6542038,5.60372173 C34.6379185,7.05976066 36.0879256,9.10973485 36.7864396,11.4457461 C37.3187044,13.3747976 37.5683252,15.3687336 37.5277465,17.3672046 C37.5136793,19.3408643 36.9280922,21.2696882 35.8396218,22.9275986 C34.7460106,24.6246019 33.3074347,26.0977453 32.4853914,27.953617 Z" id="Shape" fill="#E3F8FF"></path>
                    <path d="M44.0380362,9.43100589 L44.0380362,10.7886086 C44.0401972,11.0647988 43.8433532,11.3038591 43.5682972,11.3590906 L41.4691508,11.7707041 C41.3265736,12.2975731 41.1117502,12.80289 40.8305992,13.2727326 L42.0269659,15.0275063 C42.1756461,15.25953 42.1421901,15.5617628 41.9462295,15.7568567 L40.970053,16.7172884 C40.7717608,16.9100883 40.4645734,16.9430047 40.2287461,16.7967226 L38.4452056,15.6196522 C38.3571295,15.6702012 38.2617138,15.7207503 38.166298,15.7712993 C37.7699441,15.9758721 37.3513773,16.1357535 36.9185537,16.2479045 L36.7937793,16.8833781 L34.9515214,17.2444426 C34.8096989,17.7639359 34.6128981,18.267365 34.3643476,18.7464711 C34.1565722,18.6899962 33.9998164,18.5217481 33.9606656,18.3131937 L33.5423042,16.2479045 C33.0067981,16.1076269 32.4931973,15.8962684 32.0156523,15.6196522 L30.2321119,16.7967226 C29.9962845,16.9430047 29.6890971,16.9100883 29.4908049,16.7172884 L28.5146284,15.7568567 C28.3186678,15.5617628 28.2852119,15.25953 28.433892,15.0275063 L29.6302587,13.2727326 C29.3491078,12.80289 29.1342844,12.2975731 28.9917072,11.7707041 L26.8925608,11.3590906 C26.6175047,11.3038591 26.4206607,11.0647988 26.4228217,10.7886086 L26.4228217,9.43100589 C26.4206607,9.15481571 26.6175047,8.91575538 26.8925608,8.86052391 L28.9917072,8.44891033 C29.0757858,8.12814355 29.1913159,7.81616487 29.3366718,7.51736381 C29.4197523,7.3201822 29.5178954,7.12947589 29.6302587,6.94688183 L28.9550088,5.95756498 L28.433892,5.19210815 C28.2949272,4.97233607 28.3156722,4.68950677 28.4852698,4.49164293 L28.5146284,4.46275777 L29.4908049,3.50232608 C29.6890971,3.30952616 29.9962845,3.27660973 30.2321119,3.42289188 L32.0156523,4.59996229 C32.4931973,4.32334608 33.0067981,4.11198755 33.5423042,3.97170999 L33.9606656,1.90642079 C34.0168025,1.6358011 34.2597818,1.44213198 34.5404997,1.44425818 L35.9203582,1.44425818 C36.2010761,1.44213198 36.4440554,1.6358011 36.5001923,1.90642079 L36.9185537,3.97170999 C37.4540598,4.11198755 37.9676606,4.32334608 38.4452056,4.59996229 L40.2287461,3.42289188 C40.4645734,3.27660973 40.7717608,3.30952616 40.970053,3.50232608 L41.9462295,4.46275777 C42.1421901,4.65785171 42.1756461,4.96008447 42.0269659,5.19210815 L40.8305992,6.94688183 C41.1117502,7.41672451 41.3265736,7.92204141 41.4691508,8.44891033 L43.5682972,8.86052391 C43.8433532,8.91575538 44.0401972,9.15481571 44.0380362,9.43100589 Z" id="Shape" fill="#B3ECFF"></path>
                    <path d="M44.0380362,9.43100589 L44.0380362,10.7886086 C44.0401972,11.0647988 43.8433532,11.3038591 43.5682972,11.3590906 L41.4691508,11.7707041 C41.3265736,12.2975731 41.1117502,12.80289 40.8305992,13.2727326 L42.0269659,15.0275063 C42.1756461,15.25953 42.1421901,15.5617628 41.9462295,15.7568567 L40.970053,16.7172884 C40.7717608,16.9100883 40.4645734,16.9430047 40.2287461,16.7967226 L39.3039473,16.1901342 L39.7443277,15.7568567 C39.9402883,15.5617628 39.9737443,15.25953 39.8250641,15.0275063 L38.6286974,13.2727326 C38.9098484,12.80289 39.1246718,12.2975731 39.267249,11.7707041 L41.3663953,11.3590906 C41.6414514,11.3038591 41.8382954,11.0647988 41.8361344,10.7886086 L41.8361344,9.43100589 C41.8382954,9.15481571 41.6414514,8.91575538 41.3663953,8.86052391 L39.267249,8.44891033 C39.1246718,7.92204141 38.9098484,7.41672451 38.6286974,6.94688183 L39.8250641,5.19210815 C39.9737443,4.96008447 39.9402883,4.65785171 39.7443277,4.46275777 L39.3039473,4.02948031 L40.2287461,3.42289188 C40.4645734,3.27660973 40.7717608,3.30952616 40.970053,3.50232608 L41.9462295,4.46275777 C42.1421901,4.65785171 42.1756461,4.96008447 42.0269659,5.19210815 L40.8305992,6.94688183 C41.1117502,7.41672451 41.3265736,7.92204141 41.4691508,8.44891033 L43.5682972,8.86052391 C43.8433532,8.91575538 44.0401972,9.15481571 44.0380362,9.43100589 Z" id="Shape" fill="#71BCE5"></path>
                    <path d="M38.9002653,10.1098072 C38.9002653,12.1039116 37.2572236,13.7204527 35.230429,13.7204527 C34.8576298,13.71933 34.486904,13.6658339 34.1294781,13.5615843 C32.5999317,13.0849768 31.5604957,11.6883533 31.5604957,10.1098072 C31.5604957,8.53126121 32.5999317,7.13463771 34.1294781,6.65803019 C34.486904,6.55378062 34.8576298,6.50028448 35.230429,6.4991618 C37.2572236,6.4991618 38.9002653,8.11570286 38.9002653,10.1098072 Z" id="Shape" fill="#71BCE5"></path>
                    <ellipse id="Oval" fill="#FFFFFF" cx="34.1294781" cy="10.1098072" rx="2.56888545" ry="3.45177704"></ellipse>
                    <path d="M38.166298,14.3125985 L38.166298,16.0168232 C38.1663692,16.3600285 37.9209081,16.6558686 37.5791242,16.7245097 L36.7937793,16.8833781 L34.9515214,17.2444426 C34.8096989,17.7639359 34.6128981,18.267365 34.3643476,18.7464711 C34.2982905,18.8764544 34.2322335,18.9992163 34.1588368,19.1219783 L35.6487903,21.3100294 C35.8411669,21.5970054 35.8012527,21.9776265 35.5533746,22.219912 L34.3276492,23.4258676 C34.0813918,23.6697477 33.694531,23.7090181 33.4028505,23.5197444 L31.1789296,22.0538224 C30.5800849,22.3944945 29.9385443,22.6566824 29.2706147,22.8337218 L28.7421583,25.4189439 C28.672392,25.7552151 28.371702,25.9967172 28.0228704,25.9966472 L26.2907076,25.9966472 C25.941876,25.9967172 25.641186,25.7552151 25.5714197,25.4189439 L25.0429633,22.8337218 C24.3750337,22.6566824 23.7334931,22.3944945 23.1346484,22.0538224 L20.9107275,23.5197444 C20.619047,23.7090181 20.2321862,23.6697477 19.9859288,23.4258676 L18.7602034,22.219912 C18.5123253,21.9776265 18.4724111,21.5970054 18.6647877,21.3100294 L20.1547412,19.1219783 C19.8084843,18.5327923 19.5419983,17.9015992 19.3620566,17.2444426 L16.7344538,16.7245097 C16.3926699,16.6558686 16.1472087,16.3600285 16.1472799,16.0168232 L16.1472799,14.3125985 C16.1472087,13.9693933 16.3926699,13.6735531 16.7344538,13.604912 L19.3620566,13.0849791 C19.5419983,12.4278225 19.8084843,11.7966294 20.1547412,11.2074435 L18.6647877,9.01939231 C18.4724111,8.73241626 18.5123253,8.35179524 18.7602034,8.10950966 L19.9859288,6.90355408 C20.2321862,6.65967399 20.619047,6.62040356 20.9107275,6.8096773 L23.1346484,8.27559935 C23.7334931,7.93492723 24.3750337,7.67273934 25.0429633,7.49569994 L25.5714197,4.9104778 C25.641186,4.57420666 25.941876,4.33270448 26.2907076,4.33277453 L28.0228704,4.33277453 C28.3726235,4.33014425 28.674757,4.57280581 28.7421583,4.9104778 L28.9550088,5.95756498 L29.2706147,7.49569994 L29.3366718,7.51736381 C29.9816041,7.69036789 30.6008957,7.94525562 31.1789296,8.27559935 L33.4028505,6.8096773 C33.694531,6.62040356 34.0813918,6.65967399 34.3276492,6.90355408 L35.5533746,8.10950966 C35.8012527,8.35179524 35.8411669,8.73241626 35.6487903,9.01939231 L34.1588368,11.2074435 C34.5050937,11.7966294 34.7715797,12.4278225 34.9515214,13.0849791 L37.5791242,13.604912 C37.9209081,13.6735531 38.1663692,13.9693933 38.166298,14.3125985 Z" id="Shape" fill="#B3ECFF"></path>
                    <path d="M38.166298,14.3125985 L38.166298,16.0168232 C38.1663692,16.3600285 37.9209081,16.6558686 37.5791242,16.7245097 L36.7937793,16.8833781 L35.4652985,17.1433446 L34.9515214,17.2444426 C34.8096989,17.7639359 34.6128981,18.267365 34.3643476,18.7464711 C34.2982905,18.8764544 34.2322335,18.9992163 34.1588368,19.1219783 L35.6487903,21.3100294 C35.8411669,21.5970054 35.8012527,21.9776265 35.5533746,22.219912 L34.3276492,23.4258676 C34.0813918,23.6697477 33.694531,23.7090181 33.4028505,23.5197444 L32.5808071,22.9781476 L33.3514728,22.219912 C33.5993509,21.9776265 33.6392651,21.5970054 33.4468885,21.3100294 L31.9569349,19.1219783 C32.0303317,18.9992163 32.0963887,18.8764544 32.1624458,18.7464711 C32.4109963,18.267365 32.6077971,17.7639359 32.7496196,17.2444426 L34.5918774,16.8833781 L35.3772224,16.7245097 C35.7190062,16.6558686 35.9644674,16.3600285 35.9643962,16.0168232 L35.9643962,14.3125985 C35.9644674,13.9693933 35.7190062,13.6735531 35.3772224,13.604912 L32.7496196,13.0849791 C32.5696779,12.4278225 32.3031919,11.7966294 31.9569349,11.2074435 L33.4468885,9.01939231 C33.6392651,8.73241626 33.5993509,8.35179524 33.3514728,8.10950966 L32.5808071,7.35127412 L33.4028505,6.8096773 C33.694531,6.62040356 34.0813918,6.65967399 34.3276492,6.90355408 L35.5533746,8.10950966 C35.8012527,8.35179524 35.8411669,8.73241626 35.6487903,9.01939231 L34.1588368,11.2074435 C34.5050937,11.7966294 34.7715797,12.4278225 34.9515214,13.0849791 L37.5791242,13.604912 C37.9209081,13.6735531 38.1663692,13.9693933 38.166298,14.3125985 Z" id="Shape" fill="#1992D4" opacity="0.438174293"></path>
                    <ellipse id="Oval" fill="#FFFFFF" cx="27.156789" cy="15.1647109" rx="4.40380362" ry="4.33277453"></ellipse>
                    <path d="M3.58543011,15.2181484 C3.89369637,14.4303056 4.26508381,13.7442829 4.4962835,13.0755914 C4.55353294,12.9102238 4.60344272,12.743412 4.64307695,12.5845436 L4.77665899,12.0111731 C4.86767094,11.6248341 4.96528858,11.232718 5.08052144,10.8384355 C5.55259211,9.25024695 6.30649313,7.75674079 7.30737814,6.42694889 C7.61789011,6.01451487 7.95291931,5.62050753 8.3107114,5.24698996 L9.37789981,6.23775107 C9.05991847,6.57063941 8.76191249,6.92146601 8.48539561,7.28844889 C7.58967326,8.47983327 6.91437054,9.81721042 6.49047257,11.2392171 C6.38551525,11.6002817 6.29450331,11.9649569 6.2049593,12.340464 L6.07284519,12.910946 C6.01853162,13.1326396 5.95541043,13.3442234 5.8842156,13.5456974 C5.59796837,14.3595369 5.21703936,15.0621685 4.95721494,15.7337486 L3.58543011,15.2181484 Z" id="Shape" fill="#FFFFFF"></path>
                    <path d="M5.51136023,12.0869967 C5.11879647,11.9990837 4.72701277,12.2367869 4.63059951,12.6213722 C4.33365871,13.5074085 3.98392928,14.3754667 3.58322821,15.2210369 L4.95501304,15.7351928 C5.38276296,14.8355973 5.75052452,13.909554 6.05596395,12.9629393 C6.10292829,12.7756623 6.07178671,12.577683 5.96948122,12.4131345 C5.86717573,12.248586 5.70221087,12.131147 5.51136023,12.0869967 Z" id="Shape" fill="#1992D4"></path>
                    <path d="M9.37789981,6.23630681 L8.3107114,5.2455457 C7.95287373,5.61952974 7.61784373,6.01402033 7.30737814,6.42694889 C7.15226639,6.63107071 7.00400501,6.8395253 6.86259398,7.05231268 C6.74955328,7.21394697 6.70970865,7.41446771 6.75255591,7.60608668 C6.79540316,7.79770566 6.91710448,7.96325953 7.0886559,8.0632934 C7.42832743,8.25851342 7.86344723,8.16421787 8.08831932,7.84665467 C8.21505102,7.65408689 8.34740976,7.46801835 8.48539561,7.28844889 C8.76186677,6.92097166 9.05987355,6.56966186 9.37789981,6.23630681 Z" id="Shape" fill="#1992D4"></path>
                    <path d="M5.45117492,9.74874269 C5.37885253,9.93558551 5.38332791,10.1427945 5.46365236,10.326446 L5.53704909,10.4463194 C5.56683851,10.4854696 5.60190088,10.5204524 5.64127244,10.550306 C5.67420686,10.5828416 5.71209381,10.6101285 5.75356943,10.6311844 C5.79737959,10.6535879 5.84275567,10.6728935 5.88935338,10.6889548 C6.07446639,10.7426812 6.27296674,10.7298831 6.4493704,10.6528483 C6.53201554,10.6123299 6.60659539,10.5575418 6.66956058,10.4910914 C6.86230774,10.2881898 6.91708406,9.99333114 6.80974833,9.7364665 C6.76996299,9.65101805 6.71531807,9.57306089 6.64827553,9.50610732 C6.58209916,9.43763677 6.50341919,9.38202828 6.41634188,9.34218402 C6.23730931,9.26551629 6.03477769,9.26136499 5.85265501,9.33062995 C5.66903496,9.4138497 5.52519416,9.5636496 5.45117492,9.74874269 Z" id="Shape" fill="#1992D4"></path>
                    <path d="M7.71693188,40.4392289 C6.50568474,40.4176553 5.45143814,39.6188289 5.12088964,38.4721493 C4.8850194,37.8516116 4.80005943,37.1853674 4.87280871,36.5267335 C4.8999655,36.3346472 4.94180163,36.1476158 4.9851057,35.9598622 C5.07773678,35.6778881 5.10531774,35.3791443 5.0658421,35.0853639 C5.00712472,34.8607817 4.83831224,34.7481296 4.40527156,34.5076606 C4.23058735,34.4094511 4.05370123,34.3090751 3.89149447,34.1935345 C3.65505118,34.0259924 3.49920939,33.77001 3.46065568,33.485848 C3.43265802,33.1227742 3.51600814,32.7597854 3.69992901,32.4438157 C3.44964617,32.25534 3.17587638,32.043034 3.01733945,31.9022189 C2.33915369,31.3562893 2.78834166,30.5742235 3.05770765,30.1077281 C3.15605926,29.9358614 3.27129212,29.7372759 3.38065325,29.5061946 C3.48172996,29.2771966 3.51062248,29.023622 3.46359155,28.7782884 C3.42615922,28.5905349 2.89476691,28.3233471 2.57695909,28.1637566 C2.31141786,28.0400213 2.05661469,27.8951118 1.81510106,27.7304791 C1.28758639,27.4369787 0.902795479,26.946433 0.747912648,26.3699879 C0.631211852,25.626195 1.18829301,24.8831241 1.72041928,24.2454841 C2.97659998,22.6530927 4.05351226,20.9313358 4.93226006,19.1104242 C4.98833052,19.0121118 5.03031938,18.9066457 5.05703449,18.7970202 C5.05703449,18.5977125 4.81702719,18.3695198 4.45738323,18.0452838 C3.91621495,17.6524599 3.53541663,17.0824086 3.38358912,16.4378244 C3.34760938,16.0236634 3.41618764,15.6071717 3.58322821,15.2253697 C3.66999407,14.9780867 3.88590597,14.7963096 4.14763403,14.7501942 C4.4093621,14.7040789 4.67597308,14.8008374 4.84457007,15.0031266 C5.01316706,15.2054157 5.05738216,15.4815982 4.96015081,15.725083 C4.88676567,15.8895994 4.8454365,16.0662122 4.83831224,16.2457381 C4.86987284,16.4623768 5.1509823,16.7115114 5.44823905,16.9801434 C6.05545934,17.400544 6.44810062,18.0588745 6.52496903,18.7854661 C6.51059549,19.1292505 6.41242074,19.4645957 6.2387218,19.7632289 C5.31971799,21.6664097 4.1935859,23.4658903 2.88008757,25.1300923 C2.32153848,25.8016723 2.20190181,26.0688601 2.20190181,26.1764573 C2.33759466,26.3063169 2.48499343,26.4237842 2.64228217,26.5274121 C2.83385967,26.658891 3.03614308,26.7745839 3.2470712,26.8733119 C3.87314528,27.1881602 4.73115302,27.6199934 4.9065712,28.5009909 C5.01212427,29.0463912 4.94394026,29.6105548 4.71133591,30.1163936 C4.5836256,30.3843035 4.45151149,30.6153848 4.33627863,30.8146925 C4.30031424,30.8767956 4.26288191,30.94612 4.22544957,31.0089452 C4.53004599,31.2501363 4.94547147,31.556319 5.12088964,31.6834138 C5.2807748,31.7997903 5.3858137,31.9750223 5.41196288,32.1689988 C5.43811205,32.3629754 5.38313264,32.5590885 5.25960946,32.7124477 C5.15031673,32.8520758 5.05541235,33.0020542 4.97629809,33.1601677 L5.13777089,33.2482675 C5.78403141,33.5233046 6.27744091,34.0603829 6.49047257,34.7206887 C6.59851357,35.236823 6.57327838,35.7713736 6.41707584,36.2754326 C6.38331335,36.4198584 6.34881689,36.5707834 6.32753184,36.7188199 C6.28898778,37.1533536 6.35096798,37.5908334 6.50882175,37.9984326 C6.67260438,38.6635893 7.33715414,39.0860405 8.02079433,38.9595864 C10.1583152,38.4536094 12.264386,37.8267225 14.328509,37.0820508 C14.7115732,36.9510382 15.130056,37.1503577 15.2632164,37.5272434 C15.3963767,37.9041291 15.1937897,38.3158622 14.8107255,38.4468748 C12.6864535,39.2129958 10.5182444,39.8555956 8.31731711,40.3713488 C8.1200372,40.4138954 7.91887864,40.4366386 7.71693188,40.4392289 Z" id="Shape" fill="#1992D4"></path>
                    <path d="M8.84430561,6.46305534 C8.55114036,6.46315417 8.28603425,6.29160202 8.17001178,6.02671474 C8.05398925,5.76182746 8.10930689,5.45441827 8.3107114,5.24482357 C9.95186222,3.53843253 12.357073,2.39385793 15.6665314,1.74683026 C18.0047758,1.24254176 20.3774417,0.907539364 22.7654628,0.74451509 C23.6160056,0.701232508 24.4686061,0.717883996 25.316733,0.794341997 C25.7220919,0.831432338 26.0201398,1.18480821 25.9824414,1.58362909 C25.944743,1.98244997 25.585574,2.27569051 25.1802151,2.23860017 C24.4032331,2.1663897 23.6219359,2.14997799 22.8425294,2.1894954 C20.5261454,2.34862058 18.2246646,2.67396244 15.9564485,3.16292541 C12.9941566,3.74062868 10.7819792,4.77616179 9.37716584,6.23702894 C9.23864215,6.38118581 9.04594124,6.46292488 8.84430561,6.46305534 Z" id="Shape" fill="#1992D4"></path>
                    <path d="M8.23951657,13.3355579 C8.04626028,13.2935679 7.87842978,13.1765703 7.77409582,13.0111047 C7.66976186,12.8456392 7.63776786,12.6457308 7.68537129,12.4567268 C7.80072136,11.95503 7.94530704,11.4602766 8.11841198,10.9749179 C8.62862617,9.58498367 9.41958475,8.31107236 10.4436203,7.22995643 C11.6355831,5.99367143 13.590138,5.09823136 16.2537052,4.57685416 C16.6513623,4.49928351 17.0376414,4.75356541 17.1164837,5.14480869 C17.195326,5.53605198 16.9368755,5.91610077 16.5392185,5.99367143 C14.1802477,6.45511192 12.4884531,7.20540404 11.5100747,8.2221618 C10.6231391,9.16097309 9.93788183,10.2662267 9.49533457,11.4717427 C9.34220691,11.9060077 9.21404918,12.34841 9.11146969,12.7968496 C9.01904494,13.1805168 8.63090836,13.4203146 8.23951657,13.3355579 Z" id="Shape" fill="#71BCE5"></path>
                    <path d="M18.187709,44.0498744 C17.8497087,44.0497862 17.5554708,43.822605 17.4750267,43.499612 C17.1895135,42.3579259 16.0584699,39.2217193 14.2668558,38.4252109 C13.9923106,38.3031096 13.8214945,38.0283335 13.8360718,37.7322486 C13.8506489,37.4361638 14.0476583,37.1789176 14.3329129,37.0834951 C15.0962388,36.8285835 15.787636,36.5902809 16.3329737,36.4032495 C16.8467508,36.2277721 17.2276798,36.0956225 17.4273189,36.0327973 C20.4784208,35.0766983 21.0971552,33.994949 21.07954,33.2562109 C21.0750147,33.0643085 21.1483326,32.87853 21.283297,32.7399161 C21.4182614,32.6013021 21.603765,32.5212603 21.7988279,32.5174729 C21.9943807,32.5094303 22.1848492,32.5799789 22.3264615,32.712906 C22.4680738,32.845833 22.5486514,33.0297067 22.5496764,33.2222708 C22.5929805,35.0145952 21.0208226,36.422747 17.8779748,37.4106196 C17.6856753,37.4712784 17.3135539,37.5990952 16.8203279,37.7716841 L16.1597574,37.9977105 C17.3706275,39.3169673 18.2546486,40.8941074 18.7425882,42.6056162 L35.3904338,42.5601221 L35.341258,42.4879092 C35.1298366,42.18829 34.9397732,41.8746161 34.7724334,41.5491414 C34.4071369,40.8194745 34.1025227,40.0618902 33.86158,39.2838224 C33.41612,37.8059247 33.1070904,36.2914992 32.9382492,34.7589615 C32.6488102,32.3430973 33.0202694,29.895011 34.0142452,27.6676539 C34.6002505,26.4622872 35.3250211,25.3271247 36.1743109,24.2844791 C36.6000119,23.7197742 37.0403923,23.1362939 37.4220552,22.5434259 C38.0382328,21.6026093 38.4851432,20.5644236 38.7431963,19.4743773 C38.8399382,19.0916483 39.2308866,18.8560728 39.621365,18.9452153 C40.0118435,19.0343577 40.2574079,19.415243 40.1729646,19.8007796 C39.877901,21.0497393 39.3664364,22.239379 38.660992,23.3175483 C38.2507043,23.953744 37.7941766,24.5596103 37.3530623,25.1445349 C36.5710004,26.1000142 35.9021976,27.1400958 35.3596072,28.244635 C34.4704552,30.2362427 34.1375267,32.4252022 34.3951742,34.5856506 C34.5542008,36.0323659 34.8447928,37.4621324 35.2634575,38.8577662 C35.4831111,39.5638485 35.7602239,40.251373 36.0921065,40.9136678 C36.2325113,41.1839302 36.391414,41.4444965 36.5677173,41.6935672 C36.8794389,42.114524 37.1297057,42.5763575 37.3112262,43.0656124 C37.3812682,43.284738 37.3411719,43.523578 37.2032308,43.7089048 C37.0652897,43.8942315 36.8459607,44.0039349 36.6124893,44.0043803 L18.1899109,44.0549293 L18.187709,44.0498744 Z" id="Shape" fill="#1992D4"></path>
                    <path d="M28.0228704,26.7187763 L26.2907076,26.7187763 C25.5909133,26.7191179 24.9881733,26.2333989 24.8506638,25.5583148 L24.4102835,23.4005931 C23.9857536,23.2634348 23.5725414,23.0944424 23.1742826,22.8951027 L21.3195473,24.1191116 C20.7330531,24.5009614 19.9539635,24.421405 19.4596742,23.9291916 L18.2412886,22.7304573 C17.7484071,22.2469433 17.6684016,21.4893489 18.0497231,20.916469 L19.2974675,19.0829833 C19.09486,18.691148 18.9230972,18.2846005 18.7836904,17.8669179 L16.5876603,17.4336405 C15.9035519,17.2962503 15.4124721,16.7037762 15.4133127,16.0168232 L15.4133127,14.3125985 C15.4129654,13.6240913 15.906647,13.0310729 16.5927981,12.8957813 L18.7858923,12.4625038 C18.9252991,12.0448212 19.0970619,11.6382738 19.2996694,11.2464384 L18.0555948,9.42161822 C17.6654716,8.84469737 17.7467874,8.07647399 18.2493622,7.59102098 L19.4670139,6.39300882 C19.9584544,5.90807703 20.7284684,5.829362 21.3107397,6.20453313 L23.1742826,7.43215258 C23.5725414,7.23281296 23.9857536,7.06382055 24.4102835,6.92666222 L24.8506638,4.76605198 C24.9903063,4.09297761 25.5924931,3.60981838 26.2907076,3.61064544 L28.0228704,3.61064544 C28.7226646,3.61030384 29.3254047,4.09602277 29.4629142,4.77110689 L29.9032945,6.9288286 C30.3278244,7.06598694 30.7410365,7.23497935 31.1392954,7.43431896 L32.9940307,6.21031016 C33.5804093,5.8264792 34.3612265,5.90648353 34.8546377,6.40095224 L36.0722894,7.5989644 C36.5651709,8.08247842 36.6451763,8.84007286 36.2638549,9.41295267 L35.0161105,11.2464384 C35.218718,11.6382738 35.3904808,12.0448212 35.5298876,12.4625038 L37.7259177,12.8957813 C38.410026,13.0331714 38.9011059,13.6256455 38.9002653,14.3125985 L38.9002653,16.0168232 C38.9006126,16.7053304 38.406931,17.2983488 37.7207799,17.4336405 L35.5276857,17.8669179 C35.3882789,18.2846005 35.2165161,18.691148 35.0139086,19.0829833 L36.2579831,20.9078035 C36.6481064,21.4847243 36.5667906,22.2529477 36.0642158,22.7384007 L34.8465641,23.9364129 C34.3551236,24.4213447 33.5851096,24.5000597 33.0028383,24.1248886 L31.1392954,22.8972691 C30.7410365,23.0966088 30.3278244,23.2656012 29.9032945,23.4027595 L29.4629142,25.5633697 C29.3232717,26.2364441 28.7210849,26.7196033 28.0228704,26.7187763 Z M23.1346484,21.3316933 C23.263555,21.3319184 23.3901278,21.3655418 23.501632,21.4291807 C24.0455715,21.7381262 24.6281073,21.9760242 25.2345287,22.1368672 C25.5030452,22.2083996 25.7073811,22.4231407 25.7622512,22.6914623 L26.2907076,25.2745181 L28.0228704,25.2745181 L28.5505928,22.6914623 C28.6054629,22.4231407 28.8097988,22.2083996 29.0783153,22.1368672 C29.6847368,21.9760242 30.2672725,21.7381262 30.811212,21.4291807 C31.0535995,21.2908524 31.3548891,21.3003785 31.5877494,21.4537331 L33.8109363,22.9196551 L35.0344597,21.7093668 L33.54891,19.5242042 C33.3930414,19.2950997 33.3833591,18.9986696 33.5239551,18.7601916 C33.8379652,18.2250253 34.0797632,17.6518853 34.243243,17.0552448 C34.315948,16.7910592 34.5342095,16.5900191 34.8069299,16.536034 L37.4323308,16.0168232 L37.4323308,14.3118764 L34.8069299,13.7926656 C34.5342095,13.7386805 34.315948,13.5376404 34.243243,13.2734548 C34.0797632,12.6768143 33.8379652,12.1036743 33.5239551,11.568508 C33.3833591,11.33003 33.3930414,11.0335999 33.54891,10.8044954 L35.0388635,8.61716641 L33.8087344,7.41409935 L31.5877494,8.87568863 C31.3548891,9.02904321 31.0535995,9.03856932 30.811212,8.90024101 C30.2672725,8.59129556 29.6847368,8.3533975 29.0783153,8.19255451 C28.8097988,8.12102213 28.6054629,7.90628102 28.5505928,7.63795937 L28.0228704,5.05490362 L26.2907076,5.05490362 L25.7622512,7.63795937 C25.7073811,7.90628102 25.5030452,8.12102213 25.2345287,8.19255451 C24.6281073,8.3533975 24.0455715,8.59129556 23.501632,8.90024101 C23.2592445,9.03856932 22.9579549,9.02904321 22.7250946,8.87568863 L20.5019078,7.40976658 L19.2783843,8.62005493 L20.7639341,10.8052175 C20.9198027,11.034322 20.9294849,11.3307521 20.788889,11.5692301 C20.4748788,12.1043965 20.2330808,12.6775364 20.069601,13.2741769 C19.996896,13.5383625 19.7786345,13.7394026 19.5059142,13.7933877 L16.8812472,14.3125985 L16.8812472,16.0168232 L19.5066481,16.536034 C19.7793685,16.5900191 19.99763,16.7910592 20.070335,17.0552448 C20.2338148,17.6518853 20.4756128,18.2250253 20.7896229,18.7601916 C20.9302189,18.9986696 20.9205366,19.2950997 20.764668,19.5242042 L19.2747145,21.7115332 L20.5048436,22.9153224 L22.7258286,21.4537331 C22.8469015,21.3743063 22.9891294,21.3318488 23.1346484,21.3316933 Z" id="Shape" fill="#1992D4"></path>
                    <path d="M40.5516917,17.6112842 C40.299456,17.6109756 40.0524289,17.5406409 39.8390095,17.4083659 L38.4041034,16.4645432 C38.0460124,16.5855516 37.653128,16.4187056 37.4970111,16.0793289 C37.3408943,15.7399522 37.4727832,15.3394294 37.8015163,15.154601 L38.1105165,14.9798458 C38.3478143,14.8600915 38.6324625,14.8764028 38.8540254,15.0224514 L40.5318746,16.1301974 L41.3465782,15.3286342 L40.2214064,13.6749585 C40.0636276,13.443465 40.0553434,13.1433012 40.2001214,12.9037247 C40.4473962,12.4903499 40.6362939,12.0457652 40.7616063,11.5822284 C40.8343089,11.3173625 41.0532848,11.1159083 41.3267611,11.0622955 L43.3084727,10.6745122 L43.3084727,9.54510229 L41.330431,9.15731897 C41.0569547,9.10370616 40.8379788,8.90225193 40.7652762,8.63738603 C40.6399637,8.17384927 40.451066,7.72926458 40.2037912,7.31588979 C40.0579134,7.07700465 40.064769,6.77685262 40.2214064,6.54465593 L41.3473122,4.89386883 L40.5326085,4.09230554 L38.8540254,5.19932944 C38.6187369,5.35456345 38.3136523,5.36271397 38.0701483,5.22027118 C37.6499969,4.97698468 37.198124,4.7911337 36.7269882,4.66784243 C36.4577803,4.59631246 36.2530235,4.38086839 36.1985318,4.11180303 L35.8043914,2.16638727 L34.6564666,2.16638727 L34.2623261,4.1161358 C34.2078344,4.38520116 34.0030777,4.60064523 33.7338697,4.6721752 C33.262734,4.79546647 32.810861,4.98131746 32.3907096,5.22460395 C32.1463635,5.36575341 31.8412615,5.35591602 31.6068326,5.19932944 L29.9289834,4.09230554 L29.040883,4.96608174 C28.7521997,5.25323946 28.2833513,5.26125346 27.9847041,4.98413497 C27.8443577,4.85514974 27.7629966,4.67580319 27.7591259,4.48688647 C27.7552553,4.29796974 27.829204,4.11554289 27.964153,3.98109766 L28.9696882,2.99178081 C29.4089166,2.55902802 30.0945142,2.4840125 30.6196466,2.81124854 L32.0552866,3.75507126 C32.3311667,3.61941532 32.6161159,3.50240043 32.9081565,3.40483865 L33.2406437,1.76343923 C33.365995,1.15571108 33.9102227,0.719732138 34.5404997,0.722129088 L35.9203582,0.722129088 C36.5538575,0.720269522 37.0995298,1.16109768 37.2209482,1.77282691 L37.5527014,3.40700504 C37.8446094,3.50462878 38.1295381,3.621394 38.4055714,3.75651552 L39.8199263,2.82352474 C40.3467982,2.48457314 41.0429088,2.55474806 41.4889679,2.99178081 L42.4651443,3.9522125 C42.905518,4.38410725 42.9818062,5.0590257 42.6486362,5.57555869 L41.6893409,6.9858768 C41.8272207,7.25730729 41.9461539,7.53766048 42.0453151,7.8249908 L43.7136227,8.15211528 C44.3313136,8.27544482 44.7744397,8.81089465 44.7720035,9.43100589 L44.7720035,10.7886086 C44.7742463,11.4121616 44.3261108,11.9494322 43.7040811,12.0689435 L42.0431132,12.3946237 C41.943889,12.6818235 41.8252097,12.9621565 41.687873,13.2337377 L42.6361587,14.6252804 C42.9803773,15.1437236 42.9090723,15.8284118 42.4651443,16.267402 L41.4889679,17.2278337 C41.2409072,17.4733499 40.9035508,17.6113663 40.5516917,17.6112842 Z" id="Shape" fill="#1992D4"></path>
                    <path d="M27.156789,20.2196145 C24.3192765,20.2196145 22.0190181,17.956457 22.0190181,15.1647109 C22.0190181,12.3729647 24.3192765,10.1098072 27.156789,10.1098072 C29.9943015,10.1098072 32.2945599,12.3729647 32.2945599,15.1647109 C32.2913241,17.9551373 29.9929601,20.2164309 27.156789,20.2196145 Z M27.156789,11.5540654 C25.1299944,11.5540654 23.4869526,13.1706065 23.4869526,15.1647109 C23.4869526,17.1588152 25.1299944,18.7753563 27.156789,18.7753563 C29.1835836,18.7753563 30.8266253,17.1588152 30.8266253,15.1647109 C30.8241988,13.1715962 29.1825777,11.5564528 27.156789,11.5540654 Z" id="Shape" fill="#1992D4" opacity="0.617559524"></path>
                    <ellipse id="Oval" fill="#71BCE5" cx="27.156789" cy="15.1647109" rx="1" ry="1"></ellipse>
                    <ellipse id="Oval" fill="#71BCE5" cx="7.3396727" cy="15.8868399" rx="1" ry="1"></ellipse>
                </g>
                <path d="M95.7864034,28.7606912 L90.678988,28.7606912 C90.3707819,26.5151896 88.8737808,24.9741591 86.408132,24.9741591 C83.9865127,24.9741591 82.3574233,26.5151896 82.3574233,28.7166618 C82.3574233,31.1823106 84.4268071,32.415135 87.7290153,33.4718416 C94.157314,35.497196 96.4028156,38.8434336 96.4028156,43.3784663 C96.4028156,47.7814106 93.2326957,52.6246493 86.5402203,52.6246493 C80.9484811,52.6246493 76.9418018,49.4985588 76.1492718,43.554584 L81.432805,43.554584 C81.9171288,46.4164978 83.5902477,48.3097639 86.5842498,48.3097639 C89.6222813,48.3097639 91.2513707,46.0642623 91.2513707,43.6866724 C91.2513707,40.8247586 89.4461636,39.2396986 85.4394843,37.9628448 C79.6716272,36.1136082 77.2500079,33.0315472 77.2500079,28.7606912 C77.2500079,24.0055114 81.2126578,20.6592737 86.4521615,20.6592737 C91.8237535,20.6592737 95.3901384,24.0055114 95.7864034,28.7606912 Z M99.7789304,41.0889352 C99.7789304,34.5725777 104.666199,29.8614273 111.050468,29.8614273 C117.654884,29.8614273 122.322005,34.704666 122.322005,41.0889352 C122.322005,47.2970867 117.610855,52.4045021 111.050468,52.4045021 C104.622169,52.4045021 99.7789304,47.4732045 99.7789304,41.0889352 Z M104.798287,41.0889352 C104.798287,45.139644 107.660201,48.0015578 111.050468,48.0015578 C114.79297,48.0015578 117.346678,45.0075556 117.346678,41.0889352 C117.346678,37.3464326 114.969088,34.2203421 111.050468,34.2203421 C107.263936,34.2203421 104.798287,37.1703148 104.798287,41.0889352 Z M126.358562,62.0029206 L126.358562,30.5658984 L131.157771,30.5658984 L131.157771,33.2516944 L131.289859,33.2516944 C132.654772,31.6666344 134.724156,29.9054567 138.554717,29.9054567 C143.970339,29.9054567 148.63746,34.3964599 148.63746,41.1769941 C148.63746,47.7814106 143.970339,52.4045021 138.290541,52.4045021 C135.032362,52.4045021 132.742831,50.8634716 131.333889,49.1022938 L131.2018,49.1022938 L131.2018,62.0029206 L126.358562,62.0029206 Z M143.574074,41.1329647 C143.574074,37.6106092 141.50469,34.2203421 137.189805,34.2203421 C133.755508,34.2203421 130.981653,36.994197 130.981653,41.2210236 C130.981653,45.3157617 133.843567,48.1336461 137.233834,48.1336461 C141.46066,48.1336461 143.574074,44.6112907 143.574074,41.1329647 Z M152.585957,51.6560015 L152.585957,19.9548026 L157.517255,19.9548026 L157.517255,33.2076649 L157.649343,33.2076649 C159.322462,30.830075 161.700052,29.8614273 164.033612,29.8614273 C168.392527,29.8614273 172.179059,32.6793116 172.179059,39.5038753 L172.179059,51.6560015 L167.247762,51.6560015 L167.247762,39.7680519 C167.247762,36.1576376 165.530613,34.2203421 162.712729,34.2203421 C159.630668,34.2203421 157.517255,36.3337554 157.517255,40.4284936 L157.517255,51.6560015 L152.585957,51.6560015 Z M177.184264,51.6560015 L177.184264,30.5658984 L182.071532,30.5658984 L182.071532,33.2076649 L182.159591,33.2076649 C183.832709,30.830075 186.254329,29.8614273 188.587889,29.8614273 C192.946804,29.8614273 196.777366,32.7233411 196.777366,39.5038753 L196.777366,51.6560015 L191.846068,51.6560015 L191.846068,39.7680519 C191.846068,36.1576376 190.12892,34.2203421 187.311035,34.2203421 C184.228974,34.2203421 182.115561,36.3777848 182.115561,40.472523 L182.115561,51.6560015 L177.184264,51.6560015 Z M200.461687,41.0889352 C200.461687,34.5725777 205.348955,29.8614273 211.733224,29.8614273 C218.33764,29.8614273 223.004761,34.704666 223.004761,41.0889352 C223.004761,47.2970867 218.293611,52.4045021 211.733224,52.4045021 C205.304925,52.4045021 200.461687,47.4732045 200.461687,41.0889352 Z M205.481043,41.0889352 C205.481043,45.139644 208.342957,48.0015578 211.733224,48.0015578 C215.475727,48.0015578 218.029434,45.0075556 218.029434,41.0889352 C218.029434,37.3464326 215.651844,34.2203421 211.733224,34.2203421 C207.946692,34.2203421 205.481043,37.1703148 205.481043,41.0889352 Z M241.130739,35.9815199 L236.595707,35.9815199 C236.37556,34.4404893 235.230794,33.4278122 233.777823,33.4278122 C232.060674,33.4278122 231.136056,34.4845188 231.136056,35.6733138 C231.136056,36.9501676 231.796498,37.8307565 235.450941,39.0635809 C239.985974,40.5165525 241.571034,42.8501129 241.571034,45.8000856 C241.571034,49.6746766 238.665091,52.4045021 233.821852,52.4045021 C228.758466,52.4045021 226.292817,49.6306472 225.896552,45.7120267 L230.475614,45.7120267 C230.695762,47.4732045 231.752468,48.7940877 233.95394,48.7940877 C235.803177,48.7940877 236.859884,47.6493222 236.859884,46.1963506 C236.859884,44.6112907 235.935265,43.5986135 232.456939,42.4098185 C228.494289,41.1329647 226.512964,39.1516397 226.512964,35.893461 C226.512964,32.415135 229.24279,29.8614273 233.689764,29.8614273 C238.224796,29.8614273 240.602386,32.5472233 241.130739,35.9815199 Z" id="Sophnos" fill="#323F4B" fill-rule="nonzero"></path>
            </g>
        </g>
    </g>
</svg>