<?xml version="1.0" encoding="UTF-8"?>
<svg width="27px" height="18px" viewBox="0 0 27 18" version="1.1" xmlns="http://www.w3.org/2000/svg" xmlns:xlink="http://www.w3.org/1999/xlink">
    <!-- Generator: Sketch 53.2 (72643) - https://sketchapp.com -->
    <title>Group 2</title>
    <desc>Created with Sketch.</desc>
    <g id="Page-1" stroke="none" stroke-width="1" fill="none" fill-rule="evenodd">
        <g id="Sign-up" transform="translate(-1018.000000, -793.000000)">
            <g id="Form" transform="translate(696.000000, 98.000000)">
                <g id="Group-2" transform="translate(322.000000, 695.000000)">
                    <path d="M3.04402314,11.2943471 L2.94590745,11 L2,11 C0.8954305,11 0,10.1045695 0,9 L0,7 C-2.22044605e-16,5.8954305 0.8954305,5 2,5 L3,5 C3,4.44771525 3.44771525,4 4,4 L10.3431458,4 C11.1387952,4 11.901857,3.68392948 12.4644661,3.12132034 L14.1213203,1.46446609 C15.0590022,0.526784202 16.3307718,1.77635684e-15 17.6568542,0 L19,0 C19.5522847,4.4408921e-16 20,0.44771525 20,1 L20,15 C20,15.5522847 19.5522847,16 19,16 L17.6568542,16 C16.3307718,16 15.0590022,15.4732158 14.1213203,14.5355339 L12.4644661,12.8786797 C11.901857,12.3160705 11.1387952,12 10.3431458,12 L9,12 L9,17 C9,17.5522847 8.55228475,18 8,18 L6,18 C5.56956959,18 5.18743075,17.7245699 5.0513167,17.3162278 L3.0586982,11.3383722 C3.05347763,11.3238515 3.04858352,11.3091751 3.0440247,11.2943518 L3.04402314,11.2943471 Z" id="primary" fill="#A5B3BB"></path>
                    <path d="M24.0907861,4.15909547 C23.8291972,3.89393635 23.8291972,3.46402847 24.0907861,3.19886934 C24.352375,2.93371022 24.7764944,2.93371022 25.0380833,3.19886934 C27.6539722,5.85046059 27.6539722,10.1495394 25.0380833,12.8011307 C24.7764944,13.0662898 24.352375,13.0662898 24.0907861,12.8011307 C23.8291972,12.5359715 23.8291972,12.1060636 24.0907861,11.8409045 C26.1834973,9.71963153 26.1834973,6.28036847 24.0907861,4.15909547 Z M22.1961917,6.07954774 C21.9346028,5.81438861 21.9346028,5.38448073 22.1961917,5.11932161 C22.4577806,4.85416248 22.8819,4.85416248 23.1434889,5.11932161 C24.7130223,6.71027635 24.7130223,9.28972365 23.1434889,10.8806784 C22.8819,11.1458375 22.4577806,11.1458375 22.1961917,10.8806784 C21.9346028,10.6155193 21.9346028,10.1856114 22.1961917,9.92045226 C23.2425473,8.85981577 23.2425473,7.14018423 22.1961917,6.07954774 Z" id="secondary" fill="#3E4C59"></path>
                </g>
            </g>
        </g>
    </g>
</svg>