<?xml version="1.0" encoding="UTF-8"?>
<svg width="91px" height="102px" viewBox="0 0 91 102" version="1.1" xmlns="http://www.w3.org/2000/svg" xmlns:xlink="http://www.w3.org/1999/xlink">
    <!-- Generator: Sketch 53.2 (72643) - https://sketchapp.com -->
    <title>confetti</title>
    <desc>Created with Sketch.</desc>
    <g id="Page-1" stroke="none" stroke-width="1" fill="none" fill-rule="evenodd">
        <g id="Final-Test-Report" transform="translate(-702.000000, -318.000000)" fill-rule="nonzero">
            <g id="confetti" transform="translate(745.811148, 369.421237) rotate(94.000000) translate(-745.811148, -369.421237) translate(698.311148, 321.921237)">
                <path d="M69.0578124,64.2886858 C70.3078124,63.0439269 70.3078124,61.0250835 69.0578124,59.7811025 L35.1171876,25.9827864 C33.8679688,24.7380275 31.8414062,24.7372494 30.5914062,25.9812303 C29.3414062,27.2259893 29.3414062,29.2432766 30.590625,30.4880355 L64.5328124,64.2886858 C65.7828124,65.5326668 67.8085938,65.5326668 69.0578124,64.2886858 Z" id="Path" fill="#933EC5"></path>
                <path d="M64.5296876,64.284796 L59.0742188,66.8505552 C58.7273438,64.858163 57.1609376,63.2991025 55.1601562,62.9552377 C53.159375,62.6113732 51.1585938,63.5581679 50.1617188,65.3195017 C49.165625,67.0808356 49.3898438,69.2762792 50.721875,70.8018868 L43.9382812,74.0040291 C43.4492188,72.9000835 42.7601562,71.8957188 41.90625,71.040725 C38.5632812,67.6837657 33.2585938,67.2644375 29.4257812,70.0534756 C25.5921876,72.8425135 24.3820312,78.0028171 26.578125,82.1937648 L0.05,94.7012579 L6.8015624,80.5047825 C10.3234376,82.1836512 14.546875,81.0867073 16.7960938,77.9086822 C19.0453124,74.730657 18.6617188,70.400452 15.8898438,67.6627604 C15.2359376,67.0217095 14.4789062,66.4934651 13.65,66.1013661 L21.5859376,49.4200406 C25.09375,50.4166257 28.8351562,48.9283608 30.6867188,45.7985701 C32.5390624,42.6687796 32.0335938,38.6878848 29.4578124,36.1159018 C29.1171876,35.776705 28.7476562,35.4678493 28.3539062,35.1916684 L30.59375,30.4911474 L64.5296876,64.284796 Z" id="Path" fill="#ED539D"></path>
                <path d="M28.328125,71.0469488 C25.384375,73.9915815 24.6742188,78.4867172 26.5679688,82.1890968 L43.9234376,74.0102529 C42.6609376,71.1037408 40.0351562,69.0078781 36.9109376,68.4142837 C33.7867188,67.8206892 30.5703124,68.8071606 28.321875,71.0469488 L28.328125,71.0469488 Z" id="Path" fill="#7ED63E"></path>
                <path d="M29.459375,47.3879717 C32.5835938,44.2768523 32.5835938,39.233245 29.459375,36.1221256 C29.1171876,35.7829288 28.7460938,35.4740731 28.3507812,35.1978921 L21.5859376,49.4169287 C24.3859376,50.2135744 27.3992188,49.437156 29.459375,47.3879717 Z" id="Path" fill="#FFCD00"></path>
                <path d="M46.70625,55.2750752 C46.70625,57.9147423 44.5570312,60.0549495 41.90625,60.0549495 C39.2546876,60.0549495 37.10625,57.9147423 37.10625,55.2750752 C37.10625,52.6354084 39.2546876,50.495201 41.90625,50.495201 C44.5570312,50.495201 46.70625,52.6354084 46.70625,55.2750752 Z" id="Path" fill="#FF3051"></path>
                <path d="M28.134375,60.9076093 C28.134375,62.6673873 26.7023438,64.0941921 24.934375,64.0941921 C23.1671876,64.0941921 21.734375,62.6673873 21.734375,60.9076093 C21.734375,59.1478315 23.1671876,57.7210265 24.934375,57.7210265 C26.7023438,57.7210265 28.134375,59.1478315 28.134375,60.9076093 Z" id="Path" fill="#FFCD00"></path>
                <path d="M15.8835938,78.9340523 C19.0078124,75.8229331 19.0078124,70.7785475 15.8835938,67.6674283 C15.2375,67.0209316 14.4835938,66.4911311 13.6546876,66.1013661 L6.7984376,80.5001145 C9.8554688,81.9378111 13.4898438,81.3115418 15.8835938,78.9340523 L15.8835938,78.9340523 Z" id="Path" fill="#2488FF"></path>
                <g id="Group" transform="translate(0.000000, 30.471698)" fill="#D54B8D">
                    <path d="M10.2851562,50.7916094 C10.5859376,50.7884975 10.8867188,50.769048 11.1859376,50.7340392 L10.0015624,53.2196672 L6.1296876,61.3611684 L0.05,64.2295597 L6.8015624,50.0330844 C7.0742188,50.1606722 7.3617188,50.2719225 7.6335938,50.3676134 C8.4882812,50.653908 9.3835938,50.7970553 10.2851562,50.7916094 L10.2851562,50.7916094 Z" id="Path"></path>
                    <path d="M25.7296876,18.9957989 C25.9476562,18.9467865 26.1609376,18.8829927 26.3695312,18.8044173 L24.7859376,22.1349253 L16.978125,38.5455155 C16.8820312,38.4023682 16.7859376,38.258443 16.6742188,38.1152957 C16.4398438,37.7854346 16.1773438,37.4765789 15.8898438,37.1910623 C15.2359376,36.5500114 14.4789062,36.021767 13.65,35.6296679 L21.5859376,18.9483425 C22.50625,19.204296 23.465625,19.2960971 24.4179688,19.2190776 C24.6421876,19.2027402 24.865625,19.1708431 25.0742188,19.1389462 C25.2953124,19.1070493 25.5148438,19.0588148 25.7296876,18.9957989 L25.7296876,18.9957989 Z" id="Path"></path>
                    <path d="M30.9460938,7.71517127 C30.88125,7.57202399 30.80625,7.43354466 30.721875,7.30128893 C30.6515624,7.1628096 30.5710938,7.02977594 30.4820312,6.90296608 C29.91875,6.0464164 29.196875,5.30578485 28.3539062,4.71997024 L30.59375,0.0194493082 L33.79375,3.20603212 L31.5539062,7.90655305 L31.2820312,8.47992007 C31.1835938,8.21929863 31.0710938,7.96412305 30.9460938,7.71517127 Z" id="Path"></path>
                </g>
                <path d="M31.2820312,38.9516182 L26.3695312,49.2761154 C25.946875,49.4200406 25.5140624,49.5320689 25.0742188,49.6106443 C24.865625,49.6425412 24.6421876,49.6744383 24.4179688,49.6907757 C23.465625,49.7677952 22.50625,49.6759941 21.5859376,49.4200406 L28.3539062,35.1916684 C29.196875,35.777483 29.91875,36.5181145 30.4820312,37.3746642 C30.5765624,37.4975842 30.6578124,37.6313958 30.721875,37.772987 C30.80625,37.9052428 30.88125,38.0437221 30.9460938,38.1868694 C31.0710938,38.4358212 31.1835938,38.6909967 31.2820312,38.9516182 Z" id="Path" fill="#E5B800"></path>
                <path d="M16.978125,69.0172136 L16.85,69.2879489 L11.1859376,81.2057373 C10.8820312,81.2376344 10.578125,81.2539718 10.2898438,81.2695313 C9.3867188,81.2718651 8.4898438,81.126384 7.6335938,80.8393116 C7.3617188,80.7436207 7.0742188,80.6323703 6.8015624,80.5047825 L13.65,66.1013661 C14.4789062,66.4934651 15.2359376,67.0217095 15.8898438,67.6627604 C16.1773438,67.948277 16.4398438,68.2571327 16.6742188,68.5869939 C16.7859376,68.7301411 16.8820312,68.8740663 16.978125,69.0172136 Z" id="Path" fill="#207AE5"></path>
                <path d="M50.9554688,64.2886858 C49.1679688,66.0601333 49.06875,68.9098532 50.7296876,70.8003309 L59.0789062,66.856779 C58.7742188,65.0970012 57.5101562,63.6538588 55.8007812,63.1131666 C54.0921876,62.5732525 52.2234376,63.0260334 50.9554688,64.2886858 L50.9554688,64.2886858 Z" id="Path" fill="#C2FB3B"></path>
                <path d="M77.265625,9.84215316 C77.265625,11.601931 75.8335938,13.028736 74.065625,13.028736 C72.2984376,13.028736 70.865625,11.601931 70.865625,9.84215316 C70.865625,8.08237515 72.2984376,6.65557035 74.065625,6.65557035 C75.8335938,6.65557035 77.265625,8.08237515 77.265625,9.84215316 Z" id="Path" fill="#FF3051"></path>
                <path d="M74.065625,36.928107 C74.065625,38.6878848 72.6335938,40.1146898 70.865625,40.1146898 C69.0984376,40.1146898 67.665625,38.6878848 67.665625,36.928107 C67.665625,35.168329 69.0984376,33.7415242 70.865625,33.7415242 C72.6335938,33.7415242 74.065625,35.168329 74.065625,36.928107 Z" id="Path" fill="#FFCD00"></path>
                <path d="M45.265625,8.24886175 C45.265625,10.0086396 43.8335938,11.4354446 42.065625,11.4354446 C40.2984376,11.4354446 38.865625,10.0086396 38.865625,8.24886175 C38.865625,6.48908374 40.2984376,5.06227894 42.065625,5.06227894 C43.8335938,5.06227894 45.265625,6.48908374 45.265625,8.24886175 Z" id="Path" fill="#C2FB3B"></path>
                <path d="M76.0210938,19.4019016 L73.13125,19.4019016 C67.2382812,19.3832302 61.9335938,22.9595781 59.7617188,28.4155119 L56.5796876,36.3352905 C56.2507812,37.1529416 56.65,38.0810649 57.4710938,38.408592 C58.2914062,38.7361194 59.2234376,38.3385744 59.5523438,37.5209234 L62.7328124,29.598811 C64.421875,25.3549611 68.5484376,22.5729249 73.1328124,22.5884844 L76.0226562,22.5884844 C81.346875,22.5877063 86.2351562,19.6617449 88.734375,14.9806735 L94.70625,2.56420335 C94.99375,2.04685048 94.9695312,1.41357929 94.6445312,0.918787621 C94.31875,0.423995954 93.7445312,0.150148994 93.1539062,0.206163184 C92.5625,0.26295522 92.0515624,0.640272914 91.8257812,1.18796683 L85.8835938,13.5375311 C83.9320312,17.1519999 80.1421876,19.4057914 76.0210938,19.4019016 L76.0210938,19.4019016 Z" id="Path" fill="#FFCD00"></path>
                <path d="M45.4867188,27.1124049 C45.4460938,27.991516 46.1289062,28.7368153 47.0117188,28.7772701 L47.0867188,28.7772701 C47.9421876,28.7780481 48.6476562,28.108212 48.6867188,27.2571082 L49.0335938,19.749656 C49.0625,15.6458416 51.3546876,11.8905595 54.9984376,9.97440869 L57.5585938,8.63006907 C60.1320312,7.27950565 62.23125,5.18208689 63.5796876,2.61554956 C63.853125,2.11064428 63.8328124,1.49837864 63.5265624,1.01214454 C63.2203124,0.526688564 62.6757812,0.241950063 62.1,0.267623166 C61.525,0.292518344 61.0078124,0.623935304 60.7460938,1.13506458 C59.6976562,3.13134658 58.0640624,4.76275868 56.0625,5.81302411 L53.5023438,7.15736373 C48.8320312,9.60564896 45.8875,14.4080844 45.8335938,19.663301 L45.4867188,27.1124049 Z" id="Path" fill="#FF9811"></path>
                <path d="M93.265625,33.7415242 L90.2101562,33.7415242 C86.5703124,33.7290766 83.240625,35.779039 81.6242188,39.0263037 L79.6453124,42.9651877 C78.56875,45.1310682 76.3484376,46.4971912 73.921875,46.4878555 L69.265625,46.4878555 C68.3820312,46.4878555 67.665625,47.2012579 67.665625,48.0811469 C67.665625,48.9610359 68.3820312,49.6744383 69.265625,49.6744383 L73.921875,49.6744383 C77.5617188,49.6868859 80.8914062,47.6369235 82.5078124,44.3896586 L84.4867188,40.4507747 C85.5632812,38.2856722 87.7835938,36.9187713 90.2101562,36.928107 L93.265625,36.928107 C94.1492188,36.928107 94.865625,36.2147046 94.865625,35.3348156 C94.865625,34.4549266 94.1492188,33.7415242 93.265625,33.7415242 Z" id="Path" fill="#91DC5A"></path>
                <path d="M59.196875,20.5284084 C59.803125,19.903695 59.7945312,18.9094437 59.1773438,18.2948441 C58.5601562,17.6802445 57.5625,17.6716867 56.934375,18.2753948 L55.334375,19.8686862 C54.91875,20.269343 54.7523438,20.8613814 54.8984376,21.418411 C55.0445312,21.9754406 55.4820312,22.4103283 56.0414062,22.5565873 C56.6007812,22.7020685 57.1953124,22.5363601 57.596875,22.1216998 L59.196875,20.5284084 Z" id="Path" fill="#FF3051"></path>
                <path d="M78.865625,54.4543125 L75.665625,54.4543125 C74.7820312,54.4543125 74.065625,55.1677149 74.065625,56.0476039 C74.065625,56.9274929 74.7820312,57.6408953 75.665625,57.6408953 L78.865625,57.6408953 C79.7492188,57.6408953 80.465625,56.9274929 80.465625,56.0476039 C80.465625,55.1677149 79.7492188,54.4543125 78.865625,54.4543125 Z" id="Path" fill="#FF9811"></path>
                <path d="M87.334375,50.1412229 L85.734375,51.7345143 C85.31875,52.1351711 85.1523438,52.7272095 85.2984376,53.2842391 C85.4445312,53.8412687 85.8820312,54.2761564 86.4414062,54.4224154 C87.0007812,54.5678966 87.5953124,54.4021882 87.996875,53.9875279 L89.596875,52.3942365 C90.203125,51.7695231 90.1945312,50.7752718 89.5773438,50.1606722 C88.9601562,49.5460726 87.9625,49.5375148 87.334375,50.1412229 L87.334375,50.1412229 Z" id="Path" fill="#FFCD00"></path>
                <path d="M82.9507812,27.5356229 L79.7507812,29.1289143 C78.9601562,29.5225694 78.6390624,30.4794778 79.0335938,31.2675659 C79.4289062,32.0548759 80.3898438,32.3746234 81.18125,31.9809683 L84.38125,30.3876769 C85.171875,29.9947999 85.4929688,29.0371135 85.0976562,28.2498035 C84.703125,27.4624934 83.7414062,27.142746 82.9507812,27.5356229 Z" id="Path" fill="#FF9811"></path>
                <path d="M38.865625,17.8086102 L38.865625,19.4019016 C38.865625,20.2817906 39.5820312,20.995193 40.465625,20.995193 C41.3492188,20.995193 42.065625,20.2817906 42.065625,19.4019016 L42.065625,17.8086102 C42.065625,16.9287212 41.3492188,16.2153188 40.465625,16.2153188 C39.5820312,16.2153188 38.865625,16.9287212 38.865625,17.8086102 Z" id="Path" fill="#FF3051"></path>
                <path d="M61.7296876,11.8975612 C61.26875,12.3534543 61.1296876,13.0419615 61.3789062,13.6402237 C61.628125,14.237708 62.215625,14.6259172 62.865625,14.6220274 C62.9671876,14.6196934 63.06875,14.6088017 63.1679688,14.5901303 C63.275,14.5753489 63.378125,14.543452 63.4742188,14.4944396 C63.5757812,14.4594306 63.6726562,14.4111963 63.7617188,14.3512923 C63.8453124,14.2921663 63.9257812,14.2283723 64.0015624,14.1599105 C64.6296876,13.5351973 64.6296876,12.5222746 64.0015624,11.8975612 C63.3742188,11.2728478 62.3570312,11.2728478 61.7296876,11.8975612 Z" id="Path" fill="#FFCD00"></path>
                <path d="M52.3679688,3.19825247 C52.4578124,3.25815645 52.5554688,3.30639075 52.6578124,3.34139975 C52.753125,3.39041218 52.85625,3.42230908 52.9617188,3.43709044 C53.0625,3.45576182 53.1640624,3.46665356 53.265625,3.46898754 C53.3671876,3.46665356 53.46875,3.45576182 53.5679688,3.43709044 C53.675,3.42230908 53.778125,3.39041218 53.8742188,3.34139975 C53.971875,3.30950285 54.0640624,3.26126834 54.1460938,3.19825247 C54.2320312,3.14223832 54.3117188,3.07844433 54.3859376,3.00687069 C54.85625,2.55875748 54.996875,1.86558252 54.7382812,1.27043201 C54.6609376,1.07127059 54.540625,0.892336593 54.3859376,0.744521373 C54.3117188,0.67372566 54.2320312,0.609931866 54.1460938,0.55313979 C54.0640624,0.490901845 53.971875,0.441889413 53.8742188,0.409992516 C53.778125,0.361758008 53.675,0.329083187 53.5679688,0.314301625 C53.36875,0.266845241 53.1609376,0.266845241 52.9617188,0.314301625 C52.85625,0.329083187 52.753125,0.361758008 52.6578124,0.409992516 C52.5554688,0.44500131 52.4578124,0.493235618 52.3679688,0.55313979 L52.1296876,0.744521373 C51.5109376,1.37312462 51.5109376,2.37904537 52.1296876,3.00687069 L52.3679688,3.19825247 Z" id="Path" fill="#A25BCD"></path>
                <path d="M54.1460938,29.2323851 C54.0640624,29.1701471 53.971875,29.1211347 53.8742188,29.0892378 C53.778125,29.0410033 53.675,29.0083285 53.5679688,28.9935469 C53.36875,28.9460905 53.1609376,28.9460905 52.9617188,28.9935469 C52.85625,29.0083285 52.753125,29.0410033 52.6578124,29.0892378 C52.5554688,29.1242466 52.4578124,29.1724809 52.3679688,29.2323851 C52.2851562,29.292289 52.2054688,29.356083 52.1296876,29.4237667 C51.5109376,30.0523699 51.5109376,31.0582906 52.1296876,31.686116 L52.3679688,31.8774978 C52.4578124,31.9374017 52.5554688,31.985636 52.6578124,32.020645 C52.753125,32.0696575 52.85625,32.1015544 52.9617188,32.1163357 C53.0625,32.1350071 53.1640624,32.1458988 53.265625,32.1482328 C53.3671876,32.1458988 53.46875,32.1350071 53.5679688,32.1163357 C53.675,32.1015544 53.778125,32.0696575 53.8742188,32.020645 C53.971875,31.9887481 54.0640624,31.9405136 54.1460938,31.8774978 C54.2320312,31.8214836 54.3117188,31.7576896 54.3859376,31.686116 C54.6890624,31.3865959 54.8609376,30.9804934 54.865625,30.5549414 C54.8632812,30.3472222 54.8195312,30.1410591 54.7382812,29.9496773 C54.6609376,29.7505159 54.540625,29.5715819 54.3859376,29.4237667 C54.3117188,29.3529709 54.2320312,29.2891771 54.1460938,29.2323851 Z" id="Path" fill="#2488FF"></path>
                <path d="M90.5296876,24.6438924 C90.3890624,24.7987094 90.275,24.9768655 90.19375,25.1698031 C90.0234376,25.5556783 90.0234376,25.995234 90.19375,26.3811092 C90.275,26.5740469 90.3890624,26.7514248 90.5296876,26.9062418 C90.834375,27.2003162 91.2414062,27.3660246 91.665625,27.3683586 C92.0898438,27.3621348 92.4953124,27.1972043 92.8015624,26.9062418 C92.9429688,26.7514248 93.0570312,26.5740469 93.1382812,26.3811092 C93.3085938,25.995234 93.3085938,25.5556783 93.1382812,25.1698031 C93.0570312,24.9768655 92.9429688,24.7987094 92.8015624,24.6438924 C92.1601562,24.054188 91.171875,24.054188 90.5296876,24.6438924 Z" id="Path" fill="#57A4FF"></path>
                <path d="M83.665625,5.06227894 C84.0914062,5.06694669 84.5007812,4.90046028 84.8023438,4.60094002 C85.103125,4.30064203 85.2703124,3.89298349 85.265625,3.46898754 C85.259375,3.04732536 85.09375,2.64355683 84.8015624,2.33781278 C84.1601562,1.74810834 83.171875,1.74810834 82.5296876,2.33781278 C81.9109376,2.96641603 81.9109376,3.97233677 82.5296876,4.6001621 C82.8367188,4.89190252 83.2421876,5.05683307 83.665625,5.06227894 Z" id="Path" fill="#B2FA09"></path>
                <path d="M61.7296876,40.5768065 C61.26875,41.0326995 61.1296876,41.7212068 61.3789062,42.319469 C61.628125,42.9169532 62.215625,43.3051625 62.865625,43.3012727 C62.9671876,43.2989387 63.06875,43.2880469 63.1679688,43.2693756 C63.275,43.2545942 63.378125,43.2226973 63.4742188,43.1736849 C63.5757812,43.1386759 63.6726562,43.0904416 63.7617188,43.0305376 L64.0015624,42.8391558 C64.6296876,42.2144426 64.6296876,41.2015199 64.0015624,40.5768065 C63.3742188,39.9520931 62.3570312,39.9520931 61.7296876,40.5768065 Z" id="Path" fill="#FF3051"></path>
                <path d="M92.8015624,42.1700979 C92.1601562,41.5803935 91.171875,41.5803935 90.5296876,42.1700979 C90.3890624,42.3249148 90.275,42.5030709 90.19375,42.6960085 C90.0234376,43.0818838 90.0234376,43.5214394 90.19375,43.9073147 C90.275,44.1002523 90.3890624,44.2776303 90.5296876,44.4324472 C90.834375,44.7265216 91.2414062,44.8922301 91.665625,44.8945641 C92.0898438,44.8883403 92.4953124,44.7234097 92.8015624,44.4324472 C92.9429688,44.2776303 93.0570312,44.1002523 93.1382812,43.9073147 C93.3085938,43.5214394 93.3085938,43.0818838 93.1382812,42.6960085 C93.0570312,42.5030709 92.9429688,42.3249148 92.8015624,42.1700979 Z" id="Path" fill="#ED539D"></path>
            </g>
        </g>
    </g>
</svg>