<?xml version="1.0" encoding="UTF-8"?>
<svg width="4px" height="18px" viewBox="0 0 4 18" version="1.1" xmlns="http://www.w3.org/2000/svg" xmlns:xlink="http://www.w3.org/1999/xlink">
    <!-- Generator: Sketch 53.2 (72643) - https://sketchapp.com -->
    <title>secondary</title>
    <desc>Created with Sketch.</desc>
    <g id="Page-1" stroke="none" stroke-width="1" fill="none" fill-rule="evenodd">
        <g id="My-account" transform="translate(-1361.000000, -46.000000)" fill="#3E4C59">
            <path d="M1363,50 C1361.89543,50 1361,49.1045695 1361,48 C1361,46.8954305 1361.89543,46 1363,46 C1364.10457,46 1365,46.8954305 1365,48 C1365,49.1045695 1364.10457,50 1363,50 Z M1363,57 C1361.89543,57 1361,56.1045695 1361,55 C1361,53.8954305 1361.89543,53 1363,53 C1364.10457,53 1365,53.8954305 1365,55 C1365,56.1045695 1364.10457,57 1363,57 Z M1363,64 C1361.89543,64 1361,63.1045695 1361,62 C1361,60.8954305 1361.89543,60 1363,60 C1364.10457,60 1365,60.8954305 1365,62 C1365,63.1045695 1364.10457,64 1363,64 Z" id="secondary"></path>
        </g>
    </g>
</svg>