<?xml version="1.0" encoding="UTF-8"?>
<svg width="20px" height="18px" viewBox="0 0 20 18" version="1.1" xmlns="http://www.w3.org/2000/svg" xmlns:xlink="http://www.w3.org/1999/xlink">
    <!-- Generator: Sketch 53.2 (72643) - https://sketchapp.com -->
    <title>Parent icon</title>
    <desc>Created with Sketch.</desc>
    <g id="Page-1" stroke="none" stroke-width="1" fill="none" fill-rule="evenodd">
        <g id="Personal-Account" transform="translate(-481.000000, -416.000000)">
            <g id="Form-Acutal" transform="translate(404.000000, 330.000000)">
                <g id="Parent-Group" transform="translate(63.000000, 47.000000)">
                    <g id="Parent-icon" transform="translate(14.000000, 39.000000)">
                        <path d="M10,10 C10,8.34314575 11.3431458,7 13,7 L17,7 C18.6568542,7 20,8.34314575 20,10 L20,13 C20,13.5522847 19.5522847,14 19,14 L11,14 C10.4477153,14 10,13.5522847 10,13 C10,13.5522847 9.55228475,14 9,14 L1,14 C0.44771525,14 -4.77090775e-15,13.5522847 -5.32907052e-15,13 L-5.77315973e-15,10 C-5.97606585e-15,8.34314575 1.34314575,7 3,7 L7,7 C8.65685425,7 10,8.34314575 10,10 Z M5,6 C3.34314575,6 2,4.65685425 2,3 C2,1.34314575 3.34314575,-5.32907052e-15 5,-5.32907052e-15 C6.65685425,-5.32907052e-15 8,1.34314575 8,3 C8,4.65685425 6.65685425,6 5,6 Z M15,6 C13.3431458,6 12,4.65685425 12,3 C12,1.34314575 13.3431458,-5.32907052e-15 15,-5.32907052e-15 C16.6568542,-5.32907052e-15 18,1.34314575 18,3 C18,4.65685425 16.6568542,6 15,6 Z" id="primary" fill="#A5B3BB"></path>
                        <path d="M10,10 C8.34314575,10 7,8.65685425 7,7 C7,5.34314575 8.34314575,4 10,4 C11.6568542,4 13,5.34314575 13,7 C13,8.65685425 11.6568542,10 10,10 Z M7,11 L13,11 C14.6568542,11 16,12.3431458 16,14 L16,17 C16,17.5522847 15.5522847,18 15,18 L5,18 C4.44771525,18 4,17.5522847 4,17 L4,14 C4,12.3431458 5.34314575,11 7,11 Z" id="secondary" fill="#3E4C59"></path>
                    </g>
                </g>
            </g>
        </g>
    </g>
</svg>