<?xml version="1.0" encoding="UTF-8"?>
<svg width="10px" height="12px" viewBox="0 0 10 12" version="1.1" xmlns="http://www.w3.org/2000/svg" xmlns:xlink="http://www.w3.org/1999/xlink">
    <!-- Generator: Sketch 53.2 (72643) - https://sketchapp.com -->
    <title>Remove icon</title>
    <desc>Created with Sketch.</desc>
    <g id="Page-1" stroke="none" stroke-width="1" fill="none" fill-rule="evenodd">
        <g id="Shopping-cart" transform="translate(-969.000000, -385.000000)">
            <g id="Item" transform="translate(412.000000, 317.000000)">
                <g id="Remove-Item" transform="translate(557.000000, 68.000000)">
                    <g id="Remove-icon">
                        <path d="M1,2 L9,2 L8.49323087,10.8684598 C8.4569388,11.5035711 7.93133267,12 7.29518534,12 L2.70481466,12 C2.06866733,12 1.5430612,11.5035711 1.50676913,10.8684598 L1,2 Z M3.85714286,4.94117647 C3.54155157,4.94117647 3.28571429,5.19701376 3.28571429,5.51260504 L3.28571429,9.07563025 C3.28571429,9.39122154 3.54155157,9.64705882 3.85714286,9.64705882 C4.17273414,9.64705882 4.42857143,9.39122154 4.42857143,9.07563025 L4.42857143,5.51260504 C4.42857143,5.19701376 4.17273414,4.94117647 3.85714286,4.94117647 Z M6.14285714,4.94117647 C5.82726586,4.94117647 5.57142857,5.19701376 5.57142857,5.51260504 L5.57142857,9.07563025 C5.57142857,9.39122154 5.82726586,9.64705882 6.14285714,9.64705882 C6.45844843,9.64705882 6.71428571,9.39122154 6.71428571,9.07563025 L6.71428571,5.51260504 C6.71428571,5.19701376 6.45844843,4.94117647 6.14285714,4.94117647 Z" id="primary" fill="#A5B3BB"></path>
                        <path d="M2.86611652,1 L3.93305826,0.146446609 C4.0502685,0.0526784202 4.20923969,0 4.375,0 L5.625,0 C5.79076031,0 5.9497315,0.0526784202 6.06694174,0.146446609 L7.13388348,1 L9.375,1 C9.72017797,1 10,1.22385763 10,1.5 C10,1.77614237 9.72017797,2 9.375,2 L0.625,2 C0.279822031,2 0,1.77614237 0,1.5 C0,1.22385763 0.279822031,1 0.625,1 L2.86611652,1 Z" id="secondary" fill="#0B69A3"></path>
                    </g>
                </g>
            </g>
        </g>
    </g>
</svg>