<?xml version="1.0" encoding="UTF-8"?>
<svg width="10px" height="16px" viewBox="0 0 10 16" version="1.1" xmlns="http://www.w3.org/2000/svg" xmlns:xlink="http://www.w3.org/1999/xlink">
    <!-- Generator: Sketch 53.2 (72643) - https://sketchapp.com -->
    <title>secondary</title>
    <desc>Created with Sketch.</desc>
    <g id="Page-1" stroke="none" stroke-width="1" fill="none" fill-rule="evenodd">
        <g id="Personal-Account" transform="translate(-787.000000, -687.000000)" fill="#3E4C59">
            <g id="Form-Acutal" transform="translate(404.000000, 330.000000)">
                <g id="Address-block" transform="translate(64.000000, 227.000000)">
                    <path d="M320.707107,135.707107 C320.316582,136.097631 319.683418,136.097631 319.292893,135.707107 C318.902369,135.316582 318.902369,134.683418 319.292893,134.292893 L323.292893,130.292893 C323.683418,129.902369 324.316582,129.902369 324.707107,130.292893 L328.707107,134.292893 C329.097631,134.683418 329.097631,135.316582 328.707107,135.707107 C328.316582,136.097631 327.683418,136.097631 327.292893,135.707107 L324,132.414214 L320.707107,135.707107 Z M327.292893,140.292893 C327.683418,139.902369 328.316582,139.902369 328.707107,140.292893 C329.097631,140.683418 329.097631,141.316582 328.707107,141.707107 L324.707107,145.707107 C324.316582,146.097631 323.683418,146.097631 323.292893,145.707107 L319.292893,141.707107 C318.902369,141.316582 318.902369,140.683418 319.292893,140.292893 C319.683418,139.902369 320.316582,139.902369 320.707107,140.292893 L324,143.585786 L327.292893,140.292893 Z" id="secondary"></path>
                </g>
            </g>
        </g>
    </g>
</svg>