<?xml version="1.0" encoding="UTF-8"?>
<svg width="18px" height="20px" viewBox="0 0 18 20" version="1.1" xmlns="http://www.w3.org/2000/svg" xmlns:xlink="http://www.w3.org/1999/xlink">
    <!-- Generator: Sketch 53.2 (72643) - https://sketchapp.com -->
    <title>Password Icon</title>
    <desc>Created with Sketch.</desc>
    <g id="Page-1" stroke="none" stroke-width="1" fill="none" fill-rule="evenodd">
        <g id="My-account" transform="translate(-481.000000, -669.000000)">
            <g id="Form" transform="translate(404.000000, 377.000000)">
                <g id="Password-Input" transform="translate(63.000000, 255.000000)">
                    <g id="Password-Icon" transform="translate(14.000000, 37.000000)">
                        <path d="M9,8 L9,11 C7.8954305,11 7,11.8954305 7,13 C7,13.7402824 7.40219863,14.3866262 8,14.7324356 L8,16 C8,16.5522847 8.44771525,17 9,17 L9,20 L2,20 C0.8954305,20 0,19.1045695 0,18 L0,10 C0,8.8954305 0.8954305,8 2,8 L9,8 Z" id="Path" fill="#A5B3BB"></path>
                        <path d="M9,17 C9.55228475,17 10,16.5522847 10,16 L10,14.7324356 C10.5978014,14.3866262 11,13.7402824 11,13 C11,11.8954305 10.1045695,11 9,11 L9,8 L12,8 L12,5 C12,3.34314575 10.6568542,2 9,2 C7.34314575,2 6,3.34314575 6,5 L6,8 L4,8 L4,5 C4,2.23857625 6.23857625,0 9,0 C11.7614237,0 14,2.23857625 14,5 L14,8 L16,8 C17.1045695,8 18,8.8954305 18,10 L18,18 C18,19.1045695 17.1045695,20 16,20 L9,20 L9,17 Z" id="secondary" fill="#3E4C59"></path>
                    </g>
                </g>
            </g>
        </g>
    </g>
</svg>