<?xml version="1.0" encoding="UTF-8"?>
<svg width="20px" height="18px" viewBox="0 0 20 18" version="1.1" xmlns="http://www.w3.org/2000/svg" xmlns:xlink="http://www.w3.org/1999/xlink">
    <!-- Generator: Sketch 53.2 (72643) - https://sketchapp.com -->
    <title>Address icon</title>
    <desc>Created with Sketch.</desc>
    <g id="Page-1" stroke="none" stroke-width="1" fill="none" fill-rule="evenodd">
        <g id="Personal-Account" transform="translate(-482.000000, -595.000000)" fill-rule="nonzero">
            <g id="Form-Acutal" transform="translate(404.000000, 330.000000)">
                <g id="Address-block" transform="translate(64.000000, 227.000000)">
                    <g id="Address-icon" transform="translate(14.000000, 38.000000)">
                        <path d="M7,18.0012902 C6.84677507,18.0012902 6.69355015,17.9660993 6.5527864,17.8957174 L0.552786405,14.8957174 C0.214002376,14.7263254 0,14.3800623 0,14.0012902 L0,1.00129021 C0,0.25790819 0.782312503,-0.225587526 1.4472136,0.10686302 L7,2.88325622 L7,18.0012902 L7,18.0012902 Z M13,0.00129021133 C13.1532249,0.00129021133 13.3064499,0.0364811477 13.4472136,0.10686302 L19.4472136,3.10686302 C19.7859976,3.27625503 20,3.62251815 20,4.00129021 L20,17.0012902 C20,17.7446722 19.2176875,18.2281679 18.5527864,17.8957174 L13,15.1193242 L13,0.00129021133 L13,0.00129021133 Z" id="Shape" fill="#A5B3BB"></path>
                        <path d="M7,18.0012902 L7,2.88325622 L12.5527864,0.10686302 C12.6935501,0.0364811477 12.8467751,0.00129021133 13,0.00129021133 L13,15.1193242 L7.4472136,17.8957174 C7.30644985,17.9660993 7.15322493,18.0012902 7,18.0012902 L7,18.0012902 Z" id="secondary" fill="#3E4C59"></path>
                    </g>
                </g>
            </g>
        </g>
    </g>
</svg>