<?xml version="1.0" encoding="UTF-8"?>
<svg width="18px" height="20px" viewBox="0 0 18 20" version="1.1" xmlns="http://www.w3.org/2000/svg" xmlns:xlink="http://www.w3.org/1999/xlink">
    <!-- Generator: Sketch 53.2 (72643) - https://sketchapp.com -->
    <title>Login</title>
    <desc>Created with Sketch.</desc>
    <g id="Page-1" stroke="none" stroke-width="1" fill="none" fill-rule="evenodd">
        <g id="My-account" transform="translate(-483.000000, -567.000000)">
            <g id="Form" transform="translate(404.000000, 377.000000)">
                <g id="Login" transform="translate(79.000000, 190.000000)">
                    <path d="M9,10 C6.23857625,10 4,7.76142375 4,5 C4,2.23857625 6.23857625,0 9,0 C11.7614237,0 14,2.23857625 14,5 C14,7.76142375 11.7614237,10 9,10 Z" id="primary" fill="#A5B3BB" fill-rule="nonzero"></path>
                    <path d="M18,18 L18,17 C18,14.2385763 15.7614237,12 13,12 L5,12 C2.23857625,12 -3.33066907e-16,14.2385763 0,17 L0,18 C1.3527075e-16,19.1045695 0.8954305,20 2,20 L16,20 C17.1045695,20 18,19.1045695 18,18 Z" id="secondary" fill="#3E4C59"></path>
                </g>
            </g>
        </g>
    </g>
</svg>