<?xml version="1.0" encoding="UTF-8"?>
<svg width="13px" height="13px" viewBox="0 0 13 13" version="1.1" xmlns="http://www.w3.org/2000/svg" xmlns:xlink="http://www.w3.org/1999/xlink">
    <!-- Generator: Sketch 53.2 (72643) - https://sketchapp.com -->
    <title>Plus icon</title>
    <desc>Created with Sketch.</desc>
    <g id="Page-1" stroke="none" stroke-width="1" fill="none" fill-rule="evenodd">
        <g id="Shopping-cart" transform="translate(-785.000000, -348.000000)">
            <g id="Item" transform="translate(412.000000, 317.000000)">
                <g id="Quantity-Block" transform="translate(314.000000, 27.000000)">
                    <g id="Plus-icon" transform="translate(59.000000, 4.000000)">
                        <rect id="primary" fill="#A5B3BB" x="0" y="0" width="13" height="13" rx="1.43999988"></rect>
                        <path d="M7.22222222,5.77777778 L10.1111111,5.77777778 C10.5099834,5.77777778 10.8333333,6.10112768 10.8333333,6.5 C10.8333333,6.89887232 10.5099834,7.22222222 10.1111111,7.22222222 L7.22222222,7.22222222 L7.22222222,10.1111111 C7.22222222,10.5099834 6.89887232,10.8333333 6.5,10.8333333 C6.10112768,10.8333333 5.77777778,10.5099834 5.77777778,10.1111111 L5.77777778,7.22222222 L2.88888889,7.22222222 C2.49001657,7.22222222 2.16666667,6.89887232 2.16666667,6.5 C2.16666667,6.10112768 2.49001657,5.77777778 2.88888889,5.77777778 L5.77777778,5.77777778 L5.77777778,2.88888889 C5.77777778,2.49001657 6.10112768,2.16666667 6.5,2.16666667 C6.89887232,2.16666667 7.22222222,2.49001657 7.22222222,2.88888889 L7.22222222,5.77777778 Z" id="secondary" fill="#3E4C59"></path>
                    </g>
                </g>
            </g>
        </g>
    </g>
</svg>