<?xml version="1.0" encoding="UTF-8"?>
<svg width="20px" height="20px" viewBox="0 0 20 20" version="1.1" xmlns="http://www.w3.org/2000/svg" xmlns:xlink="http://www.w3.org/1999/xlink">
    <!-- Generator: Sketch 53.2 (72643) - https://sketchapp.com -->
    <title>Group</title>
    <desc>Created with Sketch.</desc>
    <g id="Page-1" stroke="none" stroke-width="1" fill="none" fill-rule="evenodd">
        <g id="Personal-Account" transform="translate(-484.000000, -774.000000)">
            <g id="Form-Acutal" transform="translate(404.000000, 330.000000)">
                <g id="Phone-Number-Block" transform="translate(66.000000, 407.000000)">
                    <g id="Group" transform="translate(14.000000, 37.000000)">
                        <path d="M2,0 L6,0 C6.47668102,0 6.88709584,0.336459668 6.98058068,0.803883865 L7.98058068,5.80388386 C8.04615273,6.13174414 7.94353019,6.47068337 7.70710678,6.70710678 L5.19257498,9.22163858 C6.37026196,11.6546578 8.34534224,13.629738 10.7783614,14.807425 L13.2928932,12.2928932 C13.5293166,12.0564698 13.8682559,11.9538473 14.1961161,12.0194193 L19.1961161,13.0194193 C19.6635403,13.1129042 20,13.523319 20,14 L20,18 C19.9999893,19.1045802 19.1045629,20 18,20 L16,20 C7.163444,20 1.42108547e-14,12.836556 1.42108547e-14,4 L1.42108547e-14,2 C1.42108547e-14,0.8954305 0.8954305,0 2,0 L2,0 Z" id="primary" fill="#A5B3BB"></path>
                        <path d="M20,8 C20,8.55228475 19.5522847,9 19,9 C18.4477153,9 18,8.55228475 18,8 C18,4.6862915 15.3137085,2 12,2 C11.4477153,2 11,1.55228475 11,1 C11,0.44771525 11.4477153,0 12,0 C16.418278,0 20,3.581722 20,8 Z M16,8 C16,8.55228475 15.5522847,9 15,9 C14.4477153,9 14,8.55228475 14,8 C14,6.8954305 13.1045695,6 12,6 C11.4477153,6 11,5.55228475 11,5 C11,4.44771525 11.4477153,4 12,4 C14.209139,4 16,5.790861 16,8 Z" id="secondary" fill="#3E4C59"></path>
                    </g>
                </g>
            </g>
        </g>
    </g>
</svg>