<?xml version="1.0" encoding="UTF-8"?>
<svg width="260px" height="243px" viewBox="0 0 260 243" version="1.1" xmlns="http://www.w3.org/2000/svg" xmlns:xlink="http://www.w3.org/1999/xlink">
    <!-- Generator: Sketch 53.2 (72643) - https://sketchapp.com -->
    <title>pattern</title>
    <desc>Created with Sketch.</desc>
    <g id="Page-1" stroke="none" stroke-width="1" fill="none" fill-rule="evenodd" opacity="0.503">
        <g id="Personal-Account" transform="translate(-1051.000000, -453.000000)" fill="#3E4C59">
            <g id="pattern" transform="translate(1051.000000, 453.000000)">
                <path d="M236.6,243 C235.16406,243 234,241.836419 234,240.40107 C234,238.96572 235.16406,237.802139 236.6,237.802139 C238.03594,237.802139 239.2,238.96572 239.2,240.40107 C239.2,241.836419 238.03594,243 236.6,243 Z M210.6,217.010695 C209.16406,217.010695 208,215.847114 208,214.411765 C208,212.976415 209.16406,211.812834 210.6,211.812834 C212.03594,211.812834 213.2,212.976415 213.2,214.411765 C213.2,215.847114 212.03594,217.010695 210.6,217.010695 Z M210.6,243 C209.16406,243 208,241.836419 208,240.40107 C208,238.96572 209.16406,237.802139 210.6,237.802139 C212.03594,237.802139 213.2,238.96572 213.2,240.40107 C213.2,241.836419 212.03594,243 210.6,243 Z M184.6,243 C183.16406,243 182,241.836419 182,240.40107 C182,238.96572 183.16406,237.802139 184.6,237.802139 C186.03594,237.802139 187.2,238.96572 187.2,240.40107 C187.2,241.836419 186.03594,243 184.6,243 Z M184.6,217.010695 C183.16406,217.010695 182,215.847114 182,214.411765 C182,212.976415 183.16406,211.812834 184.6,211.812834 C186.03594,211.812834 187.2,212.976415 187.2,214.411765 C187.2,215.847114 186.03594,217.010695 184.6,217.010695 Z M184.6,191.02139 C183.16406,191.02139 182,189.85781 182,188.42246 C182,186.98711 183.16406,185.823529 184.6,185.823529 C186.03594,185.823529 187.2,186.98711 187.2,188.42246 C187.2,189.85781 186.03594,191.02139 184.6,191.02139 Z M158.6,191.02139 C157.16406,191.02139 156,189.85781 156,188.42246 C156,186.98711 157.16406,185.823529 158.6,185.823529 C160.03594,185.823529 161.2,186.98711 161.2,188.42246 C161.2,189.85781 160.03594,191.02139 158.6,191.02139 Z M158.6,217.010695 C157.16406,217.010695 156,215.847114 156,214.411765 C156,212.976415 157.16406,211.812834 158.6,211.812834 C160.03594,211.812834 161.2,212.976415 161.2,214.411765 C161.2,215.847114 160.03594,217.010695 158.6,217.010695 Z M158.6,243 C157.16406,243 156,241.836419 156,240.40107 C156,238.96572 157.16406,237.802139 158.6,237.802139 C160.03594,237.802139 161.2,238.96572 161.2,240.40107 C161.2,241.836419 160.03594,243 158.6,243 Z M158.6,165.032086 C157.16406,165.032086 156,163.868505 156,162.433155 C156,160.997805 157.16406,159.834225 158.6,159.834225 C160.03594,159.834225 161.2,160.997805 161.2,162.433155 C161.2,163.868505 160.03594,165.032086 158.6,165.032086 Z M132.6,191.02139 C131.16406,191.02139 130,189.85781 130,188.42246 C130,186.98711 131.16406,185.823529 132.6,185.823529 C134.03594,185.823529 135.2,186.98711 135.2,188.42246 C135.2,189.85781 134.03594,191.02139 132.6,191.02139 Z M132.6,217.010695 C131.16406,217.010695 130,215.847114 130,214.411765 C130,212.976415 131.16406,211.812834 132.6,211.812834 C134.03594,211.812834 135.2,212.976415 135.2,214.411765 C135.2,215.847114 134.03594,217.010695 132.6,217.010695 Z M132.6,243 C131.16406,243 130,241.836419 130,240.40107 C130,238.96572 131.16406,237.802139 132.6,237.802139 C134.03594,237.802139 135.2,238.96572 135.2,240.40107 C135.2,241.836419 134.03594,243 132.6,243 Z M132.6,165.032086 C131.16406,165.032086 130,163.868505 130,162.433155 C130,160.997805 131.16406,159.834225 132.6,159.834225 C134.03594,159.834225 135.2,160.997805 135.2,162.433155 C135.2,163.868505 134.03594,165.032086 132.6,165.032086 Z M132.6,139.042781 C131.16406,139.042781 130,137.8792 130,136.44385 C130,135.008501 131.16406,133.84492 132.6,133.84492 C134.03594,133.84492 135.2,135.008501 135.2,136.44385 C135.2,137.8792 134.03594,139.042781 132.6,139.042781 Z M106.6,191.02139 C105.16406,191.02139 104,189.85781 104,188.42246 C104,186.98711 105.16406,185.823529 106.6,185.823529 C108.03594,185.823529 109.2,186.98711 109.2,188.42246 C109.2,189.85781 108.03594,191.02139 106.6,191.02139 Z M106.6,217.010695 C105.16406,217.010695 104,215.847114 104,214.411765 C104,212.976415 105.16406,211.812834 106.6,211.812834 C108.03594,211.812834 109.2,212.976415 109.2,214.411765 C109.2,215.847114 108.03594,217.010695 106.6,217.010695 Z M106.6,243 C105.16406,243 104,241.836419 104,240.40107 C104,238.96572 105.16406,237.802139 106.6,237.802139 C108.03594,237.802139 109.2,238.96572 109.2,240.40107 C109.2,241.836419 108.03594,243 106.6,243 Z M106.6,165.032086 C105.16406,165.032086 104,163.868505 104,162.433155 C104,160.997805 105.16406,159.834225 106.6,159.834225 C108.03594,159.834225 109.2,160.997805 109.2,162.433155 C109.2,163.868505 108.03594,165.032086 106.6,165.032086 Z M106.6,139.042781 C105.16406,139.042781 104,137.8792 104,136.44385 C104,135.008501 105.16406,133.84492 106.6,133.84492 C108.03594,133.84492 109.2,135.008501 109.2,136.44385 C109.2,137.8792 108.03594,139.042781 106.6,139.042781 Z M106.6,113.053476 C105.16406,113.053476 104,111.889895 104,110.454545 C104,109.019196 105.16406,107.855615 106.6,107.855615 C108.03594,107.855615 109.2,109.019196 109.2,110.454545 C109.2,111.889895 108.03594,113.053476 106.6,113.053476 Z M80.6,191.02139 C79.1640597,191.02139 78,189.85781 78,188.42246 C78,186.98711 79.1640597,185.823529 80.6,185.823529 C82.0359403,185.823529 83.2,186.98711 83.2,188.42246 C83.2,189.85781 82.0359403,191.02139 80.6,191.02139 Z M80.6,217.010695 C79.1640597,217.010695 78,215.847114 78,214.411765 C78,212.976415 79.1640597,211.812834 80.6,211.812834 C82.0359403,211.812834 83.2,212.976415 83.2,214.411765 C83.2,215.847114 82.0359403,217.010695 80.6,217.010695 Z M80.6,243 C79.1640597,243 78,241.836419 78,240.40107 C78,238.96572 79.1640597,237.802139 80.6,237.802139 C82.0359403,237.802139 83.2,238.96572 83.2,240.40107 C83.2,241.836419 82.0359403,243 80.6,243 Z M80.6,165.032086 C79.1640597,165.032086 78,163.868505 78,162.433155 C78,160.997805 79.1640597,159.834225 80.6,159.834225 C82.0359403,159.834225 83.2,160.997805 83.2,162.433155 C83.2,163.868505 82.0359403,165.032086 80.6,165.032086 Z M80.6,139.042781 C79.1640597,139.042781 78,137.8792 78,136.44385 C78,135.008501 79.1640597,133.84492 80.6,133.84492 C82.0359403,133.84492 83.2,135.008501 83.2,136.44385 C83.2,137.8792 82.0359403,139.042781 80.6,139.042781 Z M80.6,113.053476 C79.1640597,113.053476 78,111.889895 78,110.454545 C78,109.019196 79.1640597,107.855615 80.6,107.855615 C82.0359403,107.855615 83.2,109.019196 83.2,110.454545 C83.2,111.889895 82.0359403,113.053476 80.6,113.053476 Z M80.6,87.0641711 C79.1640597,87.0641711 78,85.9005903 78,84.4652406 C78,83.029891 79.1640597,81.8663102 80.6,81.8663102 C82.0359403,81.8663102 83.2,83.029891 83.2,84.4652406 C83.2,85.9005903 82.0359403,87.0641711 80.6,87.0641711 Z M54.6,191.02139 C53.1640597,191.02139 52,189.85781 52,188.42246 C52,186.98711 53.1640597,185.823529 54.6,185.823529 C56.0359403,185.823529 57.2,186.98711 57.2,188.42246 C57.2,189.85781 56.0359403,191.02139 54.6,191.02139 Z M54.6,217.010695 C53.1640597,217.010695 52,215.847114 52,214.411765 C52,212.976415 53.1640597,211.812834 54.6,211.812834 C56.0359403,211.812834 57.2,212.976415 57.2,214.411765 C57.2,215.847114 56.0359403,217.010695 54.6,217.010695 Z M54.6,243 C53.1640597,243 52,241.836419 52,240.40107 C52,238.96572 53.1640597,237.802139 54.6,237.802139 C56.0359403,237.802139 57.2,238.96572 57.2,240.40107 C57.2,241.836419 56.0359403,243 54.6,243 Z M54.6,165.032086 C53.1640597,165.032086 52,163.868505 52,162.433155 C52,160.997805 53.1640597,159.834225 54.6,159.834225 C56.0359403,159.834225 57.2,160.997805 57.2,162.433155 C57.2,163.868505 56.0359403,165.032086 54.6,165.032086 Z M54.6,139.042781 C53.1640597,139.042781 52,137.8792 52,136.44385 C52,135.008501 53.1640597,133.84492 54.6,133.84492 C56.0359403,133.84492 57.2,135.008501 57.2,136.44385 C57.2,137.8792 56.0359403,139.042781 54.6,139.042781 Z M54.6,113.053476 C53.1640597,113.053476 52,111.889895 52,110.454545 C52,109.019196 53.1640597,107.855615 54.6,107.855615 C56.0359403,107.855615 57.2,109.019196 57.2,110.454545 C57.2,111.889895 56.0359403,113.053476 54.6,113.053476 Z M54.6,87.0641711 C53.1640597,87.0641711 52,85.9005903 52,84.4652406 C52,83.029891 53.1640597,81.8663102 54.6,81.8663102 C56.0359403,81.8663102 57.2,83.029891 57.2,84.4652406 C57.2,85.9005903 56.0359403,87.0641711 54.6,87.0641711 Z M54.6,61.0748663 C53.1640597,61.0748663 52,59.9112855 52,58.4759358 C52,57.0405862 53.1640597,55.8770053 54.6,55.8770053 C56.0359403,55.8770053 57.2,57.0405862 57.2,58.4759358 C57.2,59.9112855 56.0359403,61.0748663 54.6,61.0748663 Z M28.6,191.02139 C27.1640597,191.02139 26,189.85781 26,188.42246 C26,186.98711 27.1640597,185.823529 28.6,185.823529 C30.0359403,185.823529 31.2,186.98711 31.2,188.42246 C31.2,189.85781 30.0359403,191.02139 28.6,191.02139 Z M28.6,217.010695 C27.1640597,217.010695 26,215.847114 26,214.411765 C26,212.976415 27.1640597,211.812834 28.6,211.812834 C30.0359403,211.812834 31.2,212.976415 31.2,214.411765 C31.2,215.847114 30.0359403,217.010695 28.6,217.010695 Z M28.6,243 C27.1640597,243 26,241.836419 26,240.40107 C26,238.96572 27.1640597,237.802139 28.6,237.802139 C30.0359403,237.802139 31.2,238.96572 31.2,240.40107 C31.2,241.836419 30.0359403,243 28.6,243 Z M28.6,165.032086 C27.1640597,165.032086 26,163.868505 26,162.433155 C26,160.997805 27.1640597,159.834225 28.6,159.834225 C30.0359403,159.834225 31.2,160.997805 31.2,162.433155 C31.2,163.868505 30.0359403,165.032086 28.6,165.032086 Z M28.6,139.042781 C27.1640597,139.042781 26,137.8792 26,136.44385 C26,135.008501 27.1640597,133.84492 28.6,133.84492 C30.0359403,133.84492 31.2,135.008501 31.2,136.44385 C31.2,137.8792 30.0359403,139.042781 28.6,139.042781 Z M28.6,113.053476 C27.1640597,113.053476 26,111.889895 26,110.454545 C26,109.019196 27.1640597,107.855615 28.6,107.855615 C30.0359403,107.855615 31.2,109.019196 31.2,110.454545 C31.2,111.889895 30.0359403,113.053476 28.6,113.053476 Z M28.6,87.0641711 C27.1640597,87.0641711 26,85.9005903 26,84.4652406 C26,83.029891 27.1640597,81.8663102 28.6,81.8663102 C30.0359403,81.8663102 31.2,83.029891 31.2,84.4652406 C31.2,85.9005903 30.0359403,87.0641711 28.6,87.0641711 Z M28.6,61.0748663 C27.1640597,61.0748663 26,59.9112855 26,58.4759358 C26,57.0405862 27.1640597,55.8770053 28.6,55.8770053 C30.0359403,55.8770053 31.2,57.0405862 31.2,58.4759358 C31.2,59.9112855 30.0359403,61.0748663 28.6,61.0748663 Z M28.6,35.0855615 C27.1640597,35.0855615 26,33.9219807 26,32.486631 C26,31.0512813 27.1640597,29.8877005 28.6,29.8877005 C30.0359403,29.8877005 31.2,31.0512813 31.2,32.486631 C31.2,33.9219807 30.0359403,35.0855615 28.6,35.0855615 Z M2.6,191.02139 C1.16405965,191.02139 1.75851975e-16,189.85781 0,188.42246 C-1.75851975e-16,186.98711 1.16405965,185.823529 2.6,185.823529 C4.03594035,185.823529 5.2,186.98711 5.2,188.42246 C5.2,189.85781 4.03594035,191.02139 2.6,191.02139 Z M2.6,217.010695 C1.16405965,217.010695 1.75851975e-16,215.847114 0,214.411765 C-1.75851975e-16,212.976415 1.16405965,211.812834 2.6,211.812834 C4.03594035,211.812834 5.2,212.976415 5.2,214.411765 C5.2,215.847114 4.03594035,217.010695 2.6,217.010695 Z M2.6,243 C1.16405965,243 1.75851975e-16,241.836419 0,240.40107 C-1.75851975e-16,238.96572 1.16405965,237.802139 2.6,237.802139 C4.03594035,237.802139 5.2,238.96572 5.2,240.40107 C5.2,241.836419 4.03594035,243 2.6,243 Z M2.6,165.032086 C1.16405965,165.032086 1.75851975e-16,163.868505 0,162.433155 C-1.75851975e-16,160.997805 1.16405965,159.834225 2.6,159.834225 C4.03594035,159.834225 5.2,160.997805 5.2,162.433155 C5.2,163.868505 4.03594035,165.032086 2.6,165.032086 Z M2.6,139.042781 C1.16405965,139.042781 1.75851975e-16,137.8792 0,136.44385 C-1.75851975e-16,135.008501 1.16405965,133.84492 2.6,133.84492 C4.03594035,133.84492 5.2,135.008501 5.2,136.44385 C5.2,137.8792 4.03594035,139.042781 2.6,139.042781 Z M2.6,113.053476 C1.16405965,113.053476 1.75851975e-16,111.889895 0,110.454545 C-1.75851975e-16,109.019196 1.16405965,107.855615 2.6,107.855615 C4.03594035,107.855615 5.2,109.019196 5.2,110.454545 C5.2,111.889895 4.03594035,113.053476 2.6,113.053476 Z M2.6,87.0641711 C1.16405965,87.0641711 1.75851975e-16,85.9005903 0,84.4652406 C-1.75851975e-16,83.029891 1.16405965,81.8663102 2.6,81.8663102 C4.03594035,81.8663102 5.2,83.029891 5.2,84.4652406 C5.2,85.9005903 4.03594035,87.0641711 2.6,87.0641711 Z M2.6,61.0748663 C1.16405965,61.0748663 1.75851975e-16,59.9112855 0,58.4759358 C-1.75851975e-16,57.0405862 1.16405965,55.8770053 2.6,55.8770053 C4.03594035,55.8770053 5.2,57.0405862 5.2,58.4759358 C5.2,59.9112855 4.03594035,61.0748663 2.6,61.0748663 Z M2.6,35.0855615 C1.16405965,35.0855615 1.75851975e-16,33.9219807 0,32.486631 C-1.75851975e-16,31.0512813 1.16405965,29.8877005 2.6,29.8877005 C4.03594035,29.8877005 5.2,31.0512813 5.2,32.486631 C5.2,33.9219807 4.03594035,35.0855615 2.6,35.0855615 Z M2.6,9.09625668 C1.16405965,9.09625668 1.75851975e-16,7.93267587 0,6.4973262 C-1.75851975e-16,5.06197653 1.16405965,3.89839572 2.6,3.89839572 C4.03594035,3.89839572 5.2,5.06197653 5.2,6.4973262 C5.2,7.93267587 4.03594035,9.09625668 2.6,9.09625668 Z" id="Shape"></path>
                <path d="M257.014025,240.03717 C255.578085,240.03717 254.414025,238.87359 254.414025,237.43824 C254.414025,236.00289 255.578085,234.839309 257.014025,234.839309 C258.449965,234.839309 259.614025,236.00289 259.614025,237.43824 C259.614025,238.87359 258.449965,240.03717 257.014025,240.03717 Z M231.014025,214.047866 C229.578085,214.047866 228.414025,212.884285 228.414025,211.448935 C228.414025,210.013585 229.578085,208.850005 231.014025,208.850005 C232.449965,208.850005 233.614025,210.013585 233.614025,211.448935 C233.614025,212.884285 232.449965,214.047866 231.014025,214.047866 Z M231.014025,240.03717 C229.578085,240.03717 228.414025,238.87359 228.414025,237.43824 C228.414025,236.00289 229.578085,234.839309 231.014025,234.839309 C232.449965,234.839309 233.614025,236.00289 233.614025,237.43824 C233.614025,238.87359 232.449965,240.03717 231.014025,240.03717 Z M205.014025,240.03717 C203.578085,240.03717 202.414025,238.87359 202.414025,237.43824 C202.414025,236.00289 203.578085,234.839309 205.014025,234.839309 C206.449965,234.839309 207.614025,236.00289 207.614025,237.43824 C207.614025,238.87359 206.449965,240.03717 205.014025,240.03717 Z M205.014025,214.047866 C203.578085,214.047866 202.414025,212.884285 202.414025,211.448935 C202.414025,210.013585 203.578085,208.850005 205.014025,208.850005 C206.449965,208.850005 207.614025,210.013585 207.614025,211.448935 C207.614025,212.884285 206.449965,214.047866 205.014025,214.047866 Z M205.014025,188.058561 C203.578085,188.058561 202.414025,186.89498 202.414025,185.45963 C202.414025,184.024281 203.578085,182.8607 205.014025,182.8607 C206.449965,182.8607 207.614025,184.024281 207.614025,185.45963 C207.614025,186.89498 206.449965,188.058561 205.014025,188.058561 Z M179.014025,188.058561 C177.578085,188.058561 176.414025,186.89498 176.414025,185.45963 C176.414025,184.024281 177.578085,182.8607 179.014025,182.8607 C180.449965,182.8607 181.614025,184.024281 181.614025,185.45963 C181.614025,186.89498 180.449965,188.058561 179.014025,188.058561 Z M179.014025,214.047866 C177.578085,214.047866 176.414025,212.884285 176.414025,211.448935 C176.414025,210.013585 177.578085,208.850005 179.014025,208.850005 C180.449965,208.850005 181.614025,210.013585 181.614025,211.448935 C181.614025,212.884285 180.449965,214.047866 179.014025,214.047866 Z M179.014025,240.03717 C177.578085,240.03717 176.414025,238.87359 176.414025,237.43824 C176.414025,236.00289 177.578085,234.839309 179.014025,234.839309 C180.449965,234.839309 181.614025,236.00289 181.614025,237.43824 C181.614025,238.87359 180.449965,240.03717 179.014025,240.03717 Z M179.014025,162.069256 C177.578085,162.069256 176.414025,160.905675 176.414025,159.470325 C176.414025,158.034976 177.578085,156.871395 179.014025,156.871395 C180.449965,156.871395 181.614025,158.034976 181.614025,159.470325 C181.614025,160.905675 180.449965,162.069256 179.014025,162.069256 Z M153.014025,188.058561 C151.578085,188.058561 150.414025,186.89498 150.414025,185.45963 C150.414025,184.024281 151.578085,182.8607 153.014025,182.8607 C154.449965,182.8607 155.614025,184.024281 155.614025,185.45963 C155.614025,186.89498 154.449965,188.058561 153.014025,188.058561 Z M153.014025,214.047866 C151.578085,214.047866 150.414025,212.884285 150.414025,211.448935 C150.414025,210.013585 151.578085,208.850005 153.014025,208.850005 C154.449965,208.850005 155.614025,210.013585 155.614025,211.448935 C155.614025,212.884285 154.449965,214.047866 153.014025,214.047866 Z M153.014025,240.03717 C151.578085,240.03717 150.414025,238.87359 150.414025,237.43824 C150.414025,236.00289 151.578085,234.839309 153.014025,234.839309 C154.449965,234.839309 155.614025,236.00289 155.614025,237.43824 C155.614025,238.87359 154.449965,240.03717 153.014025,240.03717 Z M153.014025,162.069256 C151.578085,162.069256 150.414025,160.905675 150.414025,159.470325 C150.414025,158.034976 151.578085,156.871395 153.014025,156.871395 C154.449965,156.871395 155.614025,158.034976 155.614025,159.470325 C155.614025,160.905675 154.449965,162.069256 153.014025,162.069256 Z M153.014025,136.079951 C151.578085,136.079951 150.414025,134.91637 150.414025,133.481021 C150.414025,132.045671 151.578085,130.88209 153.014025,130.88209 C154.449965,130.88209 155.614025,132.045671 155.614025,133.481021 C155.614025,134.91637 154.449965,136.079951 153.014025,136.079951 Z M127.014025,188.058561 C125.578085,188.058561 124.414025,186.89498 124.414025,185.45963 C124.414025,184.024281 125.578085,182.8607 127.014025,182.8607 C128.449965,182.8607 129.614025,184.024281 129.614025,185.45963 C129.614025,186.89498 128.449965,188.058561 127.014025,188.058561 Z M127.014025,214.047866 C125.578085,214.047866 124.414025,212.884285 124.414025,211.448935 C124.414025,210.013585 125.578085,208.850005 127.014025,208.850005 C128.449965,208.850005 129.614025,210.013585 129.614025,211.448935 C129.614025,212.884285 128.449965,214.047866 127.014025,214.047866 Z M127.014025,240.03717 C125.578085,240.03717 124.414025,238.87359 124.414025,237.43824 C124.414025,236.00289 125.578085,234.839309 127.014025,234.839309 C128.449965,234.839309 129.614025,236.00289 129.614025,237.43824 C129.614025,238.87359 128.449965,240.03717 127.014025,240.03717 Z M127.014025,162.069256 C125.578085,162.069256 124.414025,160.905675 124.414025,159.470325 C124.414025,158.034976 125.578085,156.871395 127.014025,156.871395 C128.449965,156.871395 129.614025,158.034976 129.614025,159.470325 C129.614025,160.905675 128.449965,162.069256 127.014025,162.069256 Z M127.014025,136.079951 C125.578085,136.079951 124.414025,134.91637 124.414025,133.481021 C124.414025,132.045671 125.578085,130.88209 127.014025,130.88209 C128.449965,130.88209 129.614025,132.045671 129.614025,133.481021 C129.614025,134.91637 128.449965,136.079951 127.014025,136.079951 Z M127.014025,110.090646 C125.578085,110.090646 124.414025,108.927066 124.414025,107.491716 C124.414025,106.056366 125.578085,104.892785 127.014025,104.892785 C128.449965,104.892785 129.614025,106.056366 129.614025,107.491716 C129.614025,108.927066 128.449965,110.090646 127.014025,110.090646 Z M101.014025,188.058561 C99.5780847,188.058561 98.4140251,186.89498 98.4140251,185.45963 C98.4140251,184.024281 99.5780847,182.8607 101.014025,182.8607 C102.449965,182.8607 103.614025,184.024281 103.614025,185.45963 C103.614025,186.89498 102.449965,188.058561 101.014025,188.058561 Z M101.014025,214.047866 C99.5780847,214.047866 98.4140251,212.884285 98.4140251,211.448935 C98.4140251,210.013585 99.5780847,208.850005 101.014025,208.850005 C102.449965,208.850005 103.614025,210.013585 103.614025,211.448935 C103.614025,212.884285 102.449965,214.047866 101.014025,214.047866 Z M101.014025,240.03717 C99.5780847,240.03717 98.4140251,238.87359 98.4140251,237.43824 C98.4140251,236.00289 99.5780847,234.839309 101.014025,234.839309 C102.449965,234.839309 103.614025,236.00289 103.614025,237.43824 C103.614025,238.87359 102.449965,240.03717 101.014025,240.03717 Z M101.014025,162.069256 C99.5780847,162.069256 98.4140251,160.905675 98.4140251,159.470325 C98.4140251,158.034976 99.5780847,156.871395 101.014025,156.871395 C102.449965,156.871395 103.614025,158.034976 103.614025,159.470325 C103.614025,160.905675 102.449965,162.069256 101.014025,162.069256 Z M101.014025,136.079951 C99.5780847,136.079951 98.4140251,134.91637 98.4140251,133.481021 C98.4140251,132.045671 99.5780847,130.88209 101.014025,130.88209 C102.449965,130.88209 103.614025,132.045671 103.614025,133.481021 C103.614025,134.91637 102.449965,136.079951 101.014025,136.079951 Z M101.014025,110.090646 C99.5780847,110.090646 98.4140251,108.927066 98.4140251,107.491716 C98.4140251,106.056366 99.5780847,104.892785 101.014025,104.892785 C102.449965,104.892785 103.614025,106.056366 103.614025,107.491716 C103.614025,108.927066 102.449965,110.090646 101.014025,110.090646 Z M101.014025,84.1013415 C99.5780847,84.1013415 98.4140251,82.9377607 98.4140251,81.5024111 C98.4140251,80.0670614 99.5780847,78.9034806 101.014025,78.9034806 C102.449965,78.9034806 103.614025,80.0670614 103.614025,81.5024111 C103.614025,82.9377607 102.449965,84.1013415 101.014025,84.1013415 Z M75.0140251,188.058561 C73.5780847,188.058561 72.4140251,186.89498 72.4140251,185.45963 C72.4140251,184.024281 73.5780847,182.8607 75.0140251,182.8607 C76.4499654,182.8607 77.6140251,184.024281 77.6140251,185.45963 C77.6140251,186.89498 76.4499654,188.058561 75.0140251,188.058561 Z M75.0140251,214.047866 C73.5780847,214.047866 72.4140251,212.884285 72.4140251,211.448935 C72.4140251,210.013585 73.5780847,208.850005 75.0140251,208.850005 C76.4499654,208.850005 77.6140251,210.013585 77.6140251,211.448935 C77.6140251,212.884285 76.4499654,214.047866 75.0140251,214.047866 Z M75.0140251,240.03717 C73.5780847,240.03717 72.4140251,238.87359 72.4140251,237.43824 C72.4140251,236.00289 73.5780847,234.839309 75.0140251,234.839309 C76.4499654,234.839309 77.6140251,236.00289 77.6140251,237.43824 C77.6140251,238.87359 76.4499654,240.03717 75.0140251,240.03717 Z M75.0140251,162.069256 C73.5780847,162.069256 72.4140251,160.905675 72.4140251,159.470325 C72.4140251,158.034976 73.5780847,156.871395 75.0140251,156.871395 C76.4499654,156.871395 77.6140251,158.034976 77.6140251,159.470325 C77.6140251,160.905675 76.4499654,162.069256 75.0140251,162.069256 Z M75.0140251,136.079951 C73.5780847,136.079951 72.4140251,134.91637 72.4140251,133.481021 C72.4140251,132.045671 73.5780847,130.88209 75.0140251,130.88209 C76.4499654,130.88209 77.6140251,132.045671 77.6140251,133.481021 C77.6140251,134.91637 76.4499654,136.079951 75.0140251,136.079951 Z M75.0140251,110.090646 C73.5780847,110.090646 72.4140251,108.927066 72.4140251,107.491716 C72.4140251,106.056366 73.5780847,104.892785 75.0140251,104.892785 C76.4499654,104.892785 77.6140251,106.056366 77.6140251,107.491716 C77.6140251,108.927066 76.4499654,110.090646 75.0140251,110.090646 Z M75.0140251,84.1013415 C73.5780847,84.1013415 72.4140251,82.9377607 72.4140251,81.5024111 C72.4140251,80.0670614 73.5780847,78.9034806 75.0140251,78.9034806 C76.4499654,78.9034806 77.6140251,80.0670614 77.6140251,81.5024111 C77.6140251,82.9377607 76.4499654,84.1013415 75.0140251,84.1013415 Z M75.0140251,58.1120367 C73.5780847,58.1120367 72.4140251,56.9484559 72.4140251,55.5131062 C72.4140251,54.0777566 73.5780847,52.9141758 75.0140251,52.9141758 C76.4499654,52.9141758 77.6140251,54.0777566 77.6140251,55.5131062 C77.6140251,56.9484559 76.4499654,58.1120367 75.0140251,58.1120367 Z M49.0140251,188.058561 C47.5780847,188.058561 46.4140251,186.89498 46.4140251,185.45963 C46.4140251,184.024281 47.5780847,182.8607 49.0140251,182.8607 C50.4499654,182.8607 51.6140251,184.024281 51.6140251,185.45963 C51.6140251,186.89498 50.4499654,188.058561 49.0140251,188.058561 Z M49.0140251,214.047866 C47.5780847,214.047866 46.4140251,212.884285 46.4140251,211.448935 C46.4140251,210.013585 47.5780847,208.850005 49.0140251,208.850005 C50.4499654,208.850005 51.6140251,210.013585 51.6140251,211.448935 C51.6140251,212.884285 50.4499654,214.047866 49.0140251,214.047866 Z M49.0140251,240.03717 C47.5780847,240.03717 46.4140251,238.87359 46.4140251,237.43824 C46.4140251,236.00289 47.5780847,234.839309 49.0140251,234.839309 C50.4499654,234.839309 51.6140251,236.00289 51.6140251,237.43824 C51.6140251,238.87359 50.4499654,240.03717 49.0140251,240.03717 Z M49.0140251,162.069256 C47.5780847,162.069256 46.4140251,160.905675 46.4140251,159.470325 C46.4140251,158.034976 47.5780847,156.871395 49.0140251,156.871395 C50.4499654,156.871395 51.6140251,158.034976 51.6140251,159.470325 C51.6140251,160.905675 50.4499654,162.069256 49.0140251,162.069256 Z M49.0140251,136.079951 C47.5780847,136.079951 46.4140251,134.91637 46.4140251,133.481021 C46.4140251,132.045671 47.5780847,130.88209 49.0140251,130.88209 C50.4499654,130.88209 51.6140251,132.045671 51.6140251,133.481021 C51.6140251,134.91637 50.4499654,136.079951 49.0140251,136.079951 Z M49.0140251,110.090646 C47.5780847,110.090646 46.4140251,108.927066 46.4140251,107.491716 C46.4140251,106.056366 47.5780847,104.892785 49.0140251,104.892785 C50.4499654,104.892785 51.6140251,106.056366 51.6140251,107.491716 C51.6140251,108.927066 50.4499654,110.090646 49.0140251,110.090646 Z M49.0140251,84.1013415 C47.5780847,84.1013415 46.4140251,82.9377607 46.4140251,81.5024111 C46.4140251,80.0670614 47.5780847,78.9034806 49.0140251,78.9034806 C50.4499654,78.9034806 51.6140251,80.0670614 51.6140251,81.5024111 C51.6140251,82.9377607 50.4499654,84.1013415 49.0140251,84.1013415 Z M49.0140251,58.1120367 C47.5780847,58.1120367 46.4140251,56.9484559 46.4140251,55.5131062 C46.4140251,54.0777566 47.5780847,52.9141758 49.0140251,52.9141758 C50.4499654,52.9141758 51.6140251,54.0777566 51.6140251,55.5131062 C51.6140251,56.9484559 50.4499654,58.1120367 49.0140251,58.1120367 Z M49.0140251,32.1227319 C47.5780847,32.1227319 46.4140251,30.9591511 46.4140251,29.5238014 C46.4140251,28.0884518 47.5780847,26.9248709 49.0140251,26.9248709 C50.4499654,26.9248709 51.6140251,28.0884518 51.6140251,29.5238014 C51.6140251,30.9591511 50.4499654,32.1227319 49.0140251,32.1227319 Z M23.0140251,188.058561 C21.5780847,188.058561 20.4140251,186.89498 20.4140251,185.45963 C20.4140251,184.024281 21.5780847,182.8607 23.0140251,182.8607 C24.4499654,182.8607 25.6140251,184.024281 25.6140251,185.45963 C25.6140251,186.89498 24.4499654,188.058561 23.0140251,188.058561 Z M23.0140251,214.047866 C21.5780847,214.047866 20.4140251,212.884285 20.4140251,211.448935 C20.4140251,210.013585 21.5780847,208.850005 23.0140251,208.850005 C24.4499654,208.850005 25.6140251,210.013585 25.6140251,211.448935 C25.6140251,212.884285 24.4499654,214.047866 23.0140251,214.047866 Z M23.0140251,240.03717 C21.5780847,240.03717 20.4140251,238.87359 20.4140251,237.43824 C20.4140251,236.00289 21.5780847,234.839309 23.0140251,234.839309 C24.4499654,234.839309 25.6140251,236.00289 25.6140251,237.43824 C25.6140251,238.87359 24.4499654,240.03717 23.0140251,240.03717 Z M23.0140251,162.069256 C21.5780847,162.069256 20.4140251,160.905675 20.4140251,159.470325 C20.4140251,158.034976 21.5780847,156.871395 23.0140251,156.871395 C24.4499654,156.871395 25.6140251,158.034976 25.6140251,159.470325 C25.6140251,160.905675 24.4499654,162.069256 23.0140251,162.069256 Z M23.0140251,136.079951 C21.5780847,136.079951 20.4140251,134.91637 20.4140251,133.481021 C20.4140251,132.045671 21.5780847,130.88209 23.0140251,130.88209 C24.4499654,130.88209 25.6140251,132.045671 25.6140251,133.481021 C25.6140251,134.91637 24.4499654,136.079951 23.0140251,136.079951 Z M23.0140251,110.090646 C21.5780847,110.090646 20.4140251,108.927066 20.4140251,107.491716 C20.4140251,106.056366 21.5780847,104.892785 23.0140251,104.892785 C24.4499654,104.892785 25.6140251,106.056366 25.6140251,107.491716 C25.6140251,108.927066 24.4499654,110.090646 23.0140251,110.090646 Z M23.0140251,84.1013415 C21.5780847,84.1013415 20.4140251,82.9377607 20.4140251,81.5024111 C20.4140251,80.0670614 21.5780847,78.9034806 23.0140251,78.9034806 C24.4499654,78.9034806 25.6140251,80.0670614 25.6140251,81.5024111 C25.6140251,82.9377607 24.4499654,84.1013415 23.0140251,84.1013415 Z M23.0140251,58.1120367 C21.5780847,58.1120367 20.4140251,56.9484559 20.4140251,55.5131062 C20.4140251,54.0777566 21.5780847,52.9141758 23.0140251,52.9141758 C24.4499654,52.9141758 25.6140251,54.0777566 25.6140251,55.5131062 C25.6140251,56.9484559 24.4499654,58.1120367 23.0140251,58.1120367 Z M23.0140251,32.1227319 C21.5780847,32.1227319 20.4140251,30.9591511 20.4140251,29.5238014 C20.4140251,28.0884518 21.5780847,26.9248709 23.0140251,26.9248709 C24.4499654,26.9248709 25.6140251,28.0884518 25.6140251,29.5238014 C25.6140251,30.9591511 24.4499654,32.1227319 23.0140251,32.1227319 Z M23.0140251,6.13342709 C21.5780847,6.13342709 20.4140251,4.96984628 20.4140251,3.53449661 C20.4140251,2.09914694 21.5780847,0.935566131 23.0140251,0.935566131 C24.4499654,0.935566131 25.6140251,2.09914694 25.6140251,3.53449661 C25.6140251,4.96984628 24.4499654,6.13342709 23.0140251,6.13342709 Z" id="Shape" transform="translate(140.014025, 120.486368) rotate(180.000000) translate(-140.014025, -120.486368) "></path>
            </g>
        </g>
    </g>
</svg>